<svg id="OBJECTS" xmlns="http://www.w3.org/2000/svg" xmlns:xlink="http://www.w3.org/1999/xlink" viewBox="0 0 274.28 433.36"><defs><style>.cls-1{fill:none;}.cls-2{fill:#f1faee;}.cls-10,.cls-14,.cls-3,.cls-4{fill:#457b9d;}.cls-3{opacity:0.09;}.cls-4{font-size:30.83px;font-family:PlayfairDisplay-Regular, PlayfairDisplay Regular;letter-spacing:0.11em;}.cls-5{letter-spacing:0.1em;}.cls-6{clip-path:url(#clip-path);}.cls-7{fill:#50b2b5;}.cls-8{fill:#459a9d;}.cls-9{fill:#1d3557;}.cls-10{opacity:0.29;}.cls-11{fill:#2e548a;}.cls-12{fill:#ffb59e;}.cls-13{fill:#ff8a65;}.cls-15{fill:#2e5269;}.cls-16{fill:#fff;}.cls-17{fill:#a8dadc;}</style><clipPath id="clip-path" transform="translate(-571.14 -32.48)"><rect class="cls-1" x="594.16" y="32.48" width="240.38" height="433.36"/></clipPath></defs><rect class="cls-2" x="23.02" width="240.38" height="433.36"/><path class="cls-3" d="M701.36,376.06c-3,2-5,6-8,9-29.45,21.52-64,41.11-99.2,47.15v33.63H834.54V303.78c-31.42,12.75-62.1,28.48-92.18,45.28C728.36,358.06,717.36,369.06,701.36,376.06Z" transform="translate(-571.14 -32.48)"/><path class="cls-3" d="M594.16,32.48V90.8q3.12,1.33,6.23,2.7c31.6,13.86,60.85,32.45,87.52,54.34,42.11,34.55,93.58,57.07,146.63,62.74V32.48Z" transform="translate(-571.14 -32.48)"/><text class="cls-4" transform="translate(54.41 57.79)">M<tspan class="cls-5" x="28.05" y="0">editación</tspan></text><g class="cls-6"><path class="cls-7" d="M648.61,243.91c-14.29-8.74-31.48-14.37-47.84-10.74s-30.8,18.66-29.55,35.37c1.63-4.69,6.29-7.88,11.16-8.84s9.94,0,14.67,1.57c14.39,4.74,26.52,14.75,36.64,26s18.54,24,28,35.83c4.17,5.25,8.7,10.47,14.62,13.61,7.33,3.88,18.39,4,22.9-4.14a21.56,21.56,0,0,0,1.47-17.79c-2.84-8.88-5.75-17.57-10.1-25.85a118.68,118.68,0,0,0-16.78-24.07A114.07,114.07,0,0,0,648.61,243.91Z" transform="translate(-571.14 -32.48)"/><path class="cls-8" d="M611.63,262.14c25.14,18,43,40.36,63.92,64.19,7.58,7.91,16.06,8.58,24,5.58-.12.23-.23.46-.36.69-4.51,8.17-15.57,8-22.9,4.14-5.92-3.14-10.45-8.36-14.62-13.61-9.43-11.86-17.85-24.55-28-35.83s-22.25-21.29-36.64-26c-4.73-1.56-9.79-2.53-14.67-1.57s-9.53,4.15-11.16,8.84a26.58,26.58,0,0,1,.08-4.89C580.65,251.39,599.55,252.78,611.63,262.14Z" transform="translate(-571.14 -32.48)"/><path class="cls-9" d="M602.74,248.74c8-2.75,16.75-2.18,24.71.47,9,3,16.77,8.65,23.53,15.16,7.53,7.26,14.13,15.52,20.51,23.79q10.05,13.05,18.91,27t16.35,28.43c.62,1.2,1.23,2.41,1.84,3.62.28.55-.6.9-.87.36Q700.4,333,691.81,319.15t-18.2-26.63a263.31,263.31,0,0,0-20-24.12c-6.57-6.89-14.07-13.18-22.9-16.93-7.68-3.26-16.35-4.65-24.56-2.75a29.54,29.54,0,0,0-3.09.89C602.53,249.81,602.17,248.93,602.74,248.74Z" transform="translate(-571.14 -32.48)"/><path class="cls-9" d="M612.14,253.87a34.63,34.63,0,0,1,15.8-3.87l-11.83-10.06c-.46-.39.11-1.14.58-.75l12.82,10.9a.48.48,0,0,1-.36.84,33.82,33.82,0,0,0-16.65,3.81C612,255,611.61,254.14,612.14,253.87Z" transform="translate(-571.14 -32.48)"/><path class="cls-9" d="M641.12,271.86a100.57,100.57,0,0,1,21.56,8.86c1.5.83,3,1.71,4.44,2.62A97,97,0,0,0,657,263.54q-1.87-2.79-3.93-5.45a.47.47,0,0,1,.75-.58A98.58,98.58,0,0,1,666,277.94c.92,2.09,1.76,4.21,2.54,6.35a.48.48,0,0,1-.73.56A99.72,99.72,0,0,0,647,274.71q-3.09-1.09-6.26-2C640.16,272.56,640.54,271.69,641.12,271.86Z" transform="translate(-571.14 -32.48)"/><path class="cls-9" d="M667.65,303.84a66.39,66.39,0,0,1,19.25,9.74c1.3.95,2.56,2,3.79,3a149.21,149.21,0,0,0-7.26-25.47.48.48,0,0,1,.88-.36,151.4,151.4,0,0,1,7.57,27,.48.48,0,0,1-.76.43A65.82,65.82,0,0,0,673,306.79q-2.79-1.17-5.69-2.08C666.71,304.52,667.08,303.65,667.65,303.84Z" transform="translate(-571.14 -32.48)"/><path class="cls-8" d="M633.52,318.53c-14.08,1.79-30.46,10.94-34.65,26.66-3.36-11,1.91-23.48,11-31a31.84,31.84,0,0,1,9.62-2.4c1.92-.16,1.76-3.15-.17-3l-.55.06c8.12-3.42,17.21-4.16,26.16-3.19a37.47,37.47,0,0,1,9.36,6,1.5,1.5,0,0,0,2-2.23,37.35,37.35,0,0,0-3-2.42c.9.2,1.79.41,2.68.64a94.91,94.91,0,0,1,17.78,6.5,103.55,103.55,0,0,1,11,12.77c1.17,1.52,3.69-.1,2.52-1.62-1.73-2.23-3.5-4.53-5.36-6.76a100.48,100.48,0,0,1,19.23,15.06c5.59,5.61,10.11,11.92,14.63,18.38A18.28,18.28,0,0,1,719,366.74a1.46,1.46,0,0,0-.05.2C694.36,343.89,668.2,316.13,633.52,318.53Z" transform="translate(-571.14 -32.48)"/><path class="cls-7" d="M633.52,318.53c34.68-2.4,60.84,25.36,85.38,48.41-1.73,7.58-10.61,10.16-17.44,8.86-5.08-1-9.65-3.61-14-6.49a68.05,68.05,0,0,1,10.87-.47c1.93.06,1.75-2.93-.17-3a66.68,66.68,0,0,0-14.25,1c-4.66-3.26-9.22-6.65-13.82-10,2.32-.21,4.65-.3,6.94-.31,1.93,0,1.76-3-.17-3a74.09,74.09,0,0,0-10.37.72c-3.87-2.74-7.8-5.4-11.87-7.84A94.81,94.81,0,0,0,636.93,338a57.91,57.91,0,0,1,9.29-3.11c1.88-.45.94-3.3-.92-2.84a59,59,0,0,0-12.48,4.67,57.09,57.09,0,0,0-14.29-2.17h-.73l1.36-1a1.53,1.53,0,0,0,.45-2.07,1.51,1.51,0,0,0-2.07-.45c-1.69,1.23-3.38,2.51-5,3.89a19.52,19.52,0,0,0-6.28,2c-3.71,2-6.68,5.73-6.82,9.94-.22-.57-.42-1.14-.59-1.71C603.06,329.47,619.44,320.32,633.52,318.53Z" transform="translate(-571.14 -32.48)"/><path class="cls-9" d="M620,323c5.8-4.22,13-5.94,20.1-5.78,8,.18,15.73,2.8,22.82,6.38a181.29,181.29,0,0,1,22.53,14.12q11.38,8,22,17.08t20.32,18.91l2.4,2.47c.36.37-.26.88-.62.51q-9.55-9.93-20-19t-21.38-17a223.35,223.35,0,0,0-22.16-14.52c-7-3.93-14.67-7.14-22.76-8-7-.71-14.38.32-20.54,3.91a27.07,27.07,0,0,0-2.28,1.49C620.1,323.93,619.59,323.31,620,323Z" transform="translate(-571.14 -32.48)"/><path class="cls-9" d="M628.89,324.8a29.41,29.41,0,0,1,11.8-7.07l-12.07-5.18c-.47-.2-.2-.95.28-.75L642,317.41a.4.4,0,0,1-.08.77,28.56,28.56,0,0,0-12.51,7.24C629,325.78,628.52,325.16,628.89,324.8Z" transform="translate(-571.14 -32.48)"/><path class="cls-9" d="M656.81,332.12a84.83,84.83,0,0,1,19.66,1.78c1.42.3,2.83.64,4.24,1a82.21,82.21,0,0,0-13.16-13.47c-1.47-1.2-3-2.34-4.54-3.43a.4.4,0,0,1,.46-.66,83.64,83.64,0,0,1,14.95,13.49c1.26,1.45,2.47,3,3.64,4.5a.41.41,0,0,1-.45.63,84.83,84.83,0,0,0-19.32-3c-1.85-.07-3.7-.08-5.56,0C656.22,332.93,656.3,332.13,656.81,332.12Z" transform="translate(-571.14 -32.48)"/><path class="cls-9" d="M686.26,351.35a56.52,56.52,0,0,1,18,3.07c1.29.45,2.56,1,3.82,1.5a126.88,126.88,0,0,0-12.23-18.79c-.32-.4.3-.91.62-.5a129,129,0,0,1,12.87,19.94.41.41,0,0,1-.51.54,55.58,55.58,0,0,0-17.52-4.7c-1.7-.17-3.41-.25-5.13-.26C685.67,352.14,685.75,351.35,686.26,351.35Z" transform="translate(-571.14 -32.48)"/><path class="cls-8" d="M645.2,213.9c-13.79-3.35-32.36-.64-41.88,12.54.8-11.51,10.17-21.25,21.32-25.06a32.12,32.12,0,0,1,9.84,1.19c1.85.54,2.77-2.31.91-2.85l-.54-.14c8.81-.3,17.57,2.26,25.58,6.36a37.61,37.61,0,0,1,6.6,8.95,1.5,1.5,0,0,0,2.66-1.37c-.6-1.14-1.26-2.25-2-3.34.77.51,1.52,1,2.27,1.55a94.88,94.88,0,0,1,14.29,12.42A102.93,102.93,0,0,1,690,240c.56,1.83,3.49,1.22,2.94-.62-.82-2.7-1.65-5.48-2.59-8.22a100.38,100.38,0,0,1,12.58,20.93c3.22,7.23,5.19,14.74,7.11,22.39a18.28,18.28,0,0,1-2.23,14.94l-.12.18C693,259.32,678.46,224,645.2,213.9Z" transform="translate(-571.14 -32.48)"/><path class="cls-7" d="M645.2,213.9C678.46,224,693,259.32,707.67,289.61c-4.32,6.46-13.53,5.71-19.45,2.05-4.4-2.71-7.72-6.82-10.72-11.05a68.31,68.31,0,0,1,10.32,3.45c1.78.74,2.68-2.12.91-2.85a66.07,66.07,0,0,0-13.68-4.16c-3.18-4.7-6.23-9.49-9.34-14.25,2.24.63,4.45,1.38,6.59,2.19,1.81.67,2.72-2.18.92-2.86a75.8,75.8,0,0,0-10-3c-2.64-3.94-5.36-7.82-8.29-11.55a95.05,95.05,0,0,0-13.55-14.23,57.23,57.23,0,0,1,9.79.42c1.92.24,2.06-2.75.16-3a58.87,58.87,0,0,0-13.33-.09,57.4,57.4,0,0,0-12.58-7.13l-.68-.26,1.63-.45a1.53,1.53,0,0,0,1.16-1.77,1.51,1.51,0,0,0-1.77-1.16c-2,.55-4.06,1.13-6,1.86a19.76,19.76,0,0,0-6.59-.36c-4.18.54-8.28,3-9.92,6.86,0-.61,0-1.21.06-1.81C612.84,213.26,631.41,210.55,645.2,213.9Z" transform="translate(-571.14 -32.48)"/><path class="cls-9" d="M631,213.26c6.92-1.88,14.26-.91,20.84,1.77,7.42,3,13.69,8.23,19,14.11a182.85,182.85,0,0,1,16,21.23q7.77,11.58,14.48,23.82t12.23,24.92c.46,1.05.91,2.11,1.36,3.17.2.47-.56.72-.76.25q-5.37-12.69-11.86-24.86t-13.9-23.51a224.28,224.28,0,0,0-15.52-21.47c-5.17-6.18-11.16-11.91-18.41-15.57-6.31-3.17-13.55-4.83-20.59-3.68a24.25,24.25,0,0,0-2.66.58C630.74,214.16,630.48,213.4,631,213.26Z" transform="translate(-571.14 -32.48)"/><path class="cls-9" d="M638.64,218.12a29.21,29.21,0,0,1,13.55-2.4l-9.43-9.15c-.37-.35.16-1,.53-.6l10.22,9.92a.4.4,0,0,1-.35.69,28.54,28.54,0,0,0-14.27,2.3C638.42,219.08,638.17,218.32,638.64,218.12Z" transform="translate(-571.14 -32.48)"/><path class="cls-9" d="M662.11,234.91a85.64,85.64,0,0,1,17.72,8.68c1.23.79,2.42,1.62,3.6,2.47A81.29,81.29,0,0,0,676,228.77q-1.43-2.46-3-4.83a.4.4,0,0,1,.67-.44,83.28,83.28,0,0,1,9.15,17.93c.66,1.81,1.25,3.65,1.79,5.51a.4.4,0,0,1-.64.42,85.18,85.18,0,0,0-17-9.71q-2.55-1.1-5.18-2C661.27,235.46,661.63,234.75,662.11,234.91Z" transform="translate(-571.14 -32.48)"/><path class="cls-9" d="M682.75,263.39a56.37,56.37,0,0,1,15.72,9.3c1,.88,2,1.81,3,2.76a126.16,126.16,0,0,0-4.72-21.91c-.15-.49.61-.75.76-.26a127.83,127.83,0,0,1,4.9,23.23.4.4,0,0,1-.66.32,55.64,55.64,0,0,0-14.69-10.64q-2.3-1.15-4.7-2.08C681.91,263.92,682.28,263.21,682.75,263.39Z" transform="translate(-571.14 -32.48)"/><path class="cls-7" d="M779,272.41c13.53-6.28,29.3-9.52,43.4-4.65S847.79,287.39,845,302c-1-4.32-4.76-7.62-9-9s-8.79-1-13.12-.09c-13.21,2.73-24.95,10.35-35,19.3S769,331.61,759.48,341.15c-4.22,4.22-8.75,8.37-14.31,10.55-6.88,2.69-16.67,1.7-19.83-6a19.2,19.2,0,0,1,.5-15.89c3.41-7.56,6.86-14.95,11.55-21.83a105.29,105.29,0,0,1,17.28-19.58A101.2,101.2,0,0,1,779,272.41Z" transform="translate(-571.14 -32.48)"/><path class="cls-8" d="M809.9,292.28c-24.06,13.36-42.11,31.34-63,50.29-7.51,6.22-15.07,6-21.78,2.51.08.21.16.42.25.64,3.16,7.68,12.95,8.67,19.83,6,5.56-2.18,10.09-6.33,14.31-10.55,9.54-9.54,18.27-19.9,28.37-28.86s21.83-16.57,35-19.3c4.33-.9,8.91-1.25,13.12.09s8,4.64,9,9a23.72,23.72,0,0,0,.42-4.34C838.39,285.91,821.54,285.23,809.9,292.28Z" transform="translate(-571.14 -32.48)"/><path class="cls-9" d="M819.12,281.33c-6.81-3.25-14.59-3.62-21.9-2.08-8.24,1.73-15.71,5.94-22.35,11-7.39,5.65-14.06,12.29-20.54,19q-10.22,10.51-19.46,21.93t-17.33,23.49c-.68,1-1.34,2-2,3-.3.46.44.86.73.41q8-12.12,16.94-23.5T752,312.86a237.82,237.82,0,0,1,20.09-19.31c6.51-5.42,13.78-10.22,22-12.64,7.12-2.1,14.93-2.46,22,0a27.71,27.71,0,0,1,2.64,1.1C819.2,282.3,819.61,281.56,819.12,281.33Z" transform="translate(-571.14 -32.48)"/><path class="cls-9" d="M810.28,284.91a30.73,30.73,0,0,0-13.57-5l11.48-7.7c.45-.3,0-1-.44-.72l-12.44,8.34a.42.42,0,0,0,.23.78,30,30,0,0,1,14.34,5.06C810.33,286,810.73,285.21,810.28,284.91Z" transform="translate(-571.14 -32.48)"/><path class="cls-9" d="M782.84,297.88a90,90,0,0,0-20,5.66c-1.41.58-2.8,1.21-4.19,1.87a86.81,86.81,0,0,1,11-16.48c1.29-1.53,2.64-3,4-4.43a.42.42,0,0,0-.6-.59,87.63,87.63,0,0,0-12.84,16.84q-1.53,2.63-2.88,5.36a.42.42,0,0,0,.58.56,89.38,89.38,0,0,1,19.38-6.86q2.85-.66,5.74-1.12C783.61,298.61,783.37,297.8,782.84,297.88Z" transform="translate(-571.14 -32.48)"/><path class="cls-9" d="M756.13,323.48a59.2,59.2,0,0,0-18,6.66c-1.25.71-2.47,1.49-3.66,2.29a133.11,133.11,0,0,1,9-21.79.42.42,0,0,0-.74-.4,134.76,134.76,0,0,0-9.43,23.1.42.42,0,0,0,.62.46,58.84,58.84,0,0,1,17.2-8.25q2.6-.75,5.25-1.27C756.9,324.18,756.66,323.37,756.13,323.48Z" transform="translate(-571.14 -32.48)"/><path class="cls-8" d="M784.83,339.93c12.27,3,25.83,12.76,27.94,27.09,4.09-9.42.69-21-6.56-28.55a28.21,28.21,0,0,0-8.26-3.09c-1.68-.34-1.24-3,.45-2.63l.48.11c-6.83-3.85-14.8-5.42-22.81-5.48a33.37,33.37,0,0,0-8.88,4.37,1.34,1.34,0,0,1-1.54-2.18c.93-.65,1.92-1.26,2.92-1.82-.81.08-1.62.18-2.43.29A84.82,84.82,0,0,0,749.76,332a91.17,91.17,0,0,0-11,10.19c-1.19,1.22-3.26-.46-2.07-1.69,1.76-1.8,3.55-3.65,5.42-5.43a89.13,89.13,0,0,0-18.53,11.36c-5.51,4.4-10.15,9.52-14.8,14.78a16.23,16.23,0,0,0-4.37,12.71,1.37,1.37,0,0,1,0,.19C728.45,356.19,754.4,334.29,784.83,339.93Z" transform="translate(-571.14 -32.48)"/><path class="cls-7" d="M784.83,339.93c-30.43-5.64-56.38,16.26-80.41,34.16.76,6.87,8.35,10.06,14.52,9.61,4.59-.34,8.9-2.22,13-4.34a61.89,61.89,0,0,0-9.57-1.51c-1.71-.14-1.25-2.77.45-2.62a59.74,59.74,0,0,1,12.51,2.33c4.44-2.41,8.82-4.95,13.23-7.42-2-.43-4.08-.74-6.11-1-1.7-.2-1.25-2.83.45-2.62a66.48,66.48,0,0,1,9.1,1.69c3.7-2,7.45-4,11.29-5.73a84.4,84.4,0,0,1,16.54-5.68,51.63,51.63,0,0,0-7.9-3.69c-1.62-.59-.5-3,1.1-2.42a53,53,0,0,1,10.56,5.39,50.81,50.81,0,0,1,12.86-.46l.65.07-1.1-1a1.33,1.33,0,0,1,1.68-2.07c1.37,1.26,2.74,2.56,4,3.95a17.61,17.61,0,0,1,5.35,2.42c3.08,2.14,5.32,5.75,5,9.49.25-.48.48-1,.69-1.45C810.66,352.69,797.1,342.93,784.83,339.93Z" transform="translate(-571.14 -32.48)"/><path class="cls-9" d="M796.33,345.26a29.14,29.14,0,0,0-17.19-7.16c-7.1-.65-14.19.89-20.83,3.34A160,160,0,0,0,737,351.64q-10.89,6-21.21,12.87t-19.89,14.67l-2.37,1.94c-.35.29.14.8.5.51q9.45-7.81,19.56-14.77T734.18,354a197.63,197.63,0,0,1,21.07-10.6c6.62-2.76,13.7-4.83,20.93-4.74A30.31,30.31,0,0,1,794,344.2a22.79,22.79,0,0,1,1.86,1.55C796.15,346.06,796.67,345.57,796.33,345.26Z" transform="translate(-571.14 -32.48)"/><path class="cls-9" d="M788.29,346a26.24,26.24,0,0,0-9.72-7.46l11.2-3.35c.44-.13.27-.82-.17-.69l-12.15,3.63a.36.36,0,0,0,0,.69,25.59,25.59,0,0,1,10.34,7.67C788.07,346.8,788.57,346.3,788.29,346Z" transform="translate(-571.14 -32.48)"/><path class="cls-9" d="M762.85,349.58a76.4,76.4,0,0,0-17.56-.41c-1.29.12-2.57.28-3.85.46a73.09,73.09,0,0,1,13-10.58c1.42-.91,2.88-1.76,4.37-2.57a.36.36,0,0,0-.35-.63,74.25,74.25,0,0,0-14.58,10.41c-1.27,1.16-2.49,2.37-3.68,3.62a.36.36,0,0,0,.34.6,74.89,74.89,0,0,1,17.38-.71c1.65.12,3.29.3,4.92.53C763.3,350.36,763.3,349.65,762.85,349.58Z" transform="translate(-571.14 -32.48)"/><path class="cls-9" d="M734.86,363.61a50.59,50.59,0,0,0-16.23.89c-1.19.27-2.36.59-3.53.94a112.86,112.86,0,0,1,12.72-15.37c.33-.33-.17-.84-.49-.51a113.48,113.48,0,0,0-13.4,16.33.35.35,0,0,0,.39.52,49.72,49.72,0,0,1,16-2.37c1.52,0,3.05.12,4.56.28C735.31,364.37,735.31,363.66,734.86,363.61Z" transform="translate(-571.14 -32.48)"/><path class="cls-8" d="M785.1,246.22c12.54-1.57,28.68,2.71,35.77,15.33.46-10.26-6.84-19.82-16.32-24.32a28.06,28.06,0,0,0-8.82.06c-1.69.28-2.21-2.33-.52-2.62l.49-.07c-7.76-1.15-15.76.22-23.26,3a33.38,33.38,0,0,0-6.74,7.25,1.33,1.33,0,0,1-2.22-1.48,32.51,32.51,0,0,1,2.08-2.75c-.73.37-1.45.75-2.16,1.13a84.66,84.66,0,0,0-13.89,9.54,90.38,90.38,0,0,0-6.66,13.45c-.67,1.56-3.21.73-2.53-.84,1-2.31,2-4.68,3.12-7a89.09,89.09,0,0,0-13.25,17.23c-3.58,6.07-6.08,12.51-8.55,19.08a16.26,16.26,0,0,0,.46,13.44l.09.17C738.24,281.54,754.66,251.82,785.1,246.22Z" transform="translate(-571.14 -32.48)"/><path class="cls-7" d="M785.1,246.22c-30.44,5.6-46.86,35.32-62.91,60.62,3.16,6.15,11.38,6.42,17,3.79,4.17-2,7.52-5.25,10.6-8.69a61.46,61.46,0,0,0-9.48,2c-1.65.48-2.15-2.14-.51-2.61A59.79,59.79,0,0,1,752.3,299c3.29-3.83,6.48-7.77,9.71-11.65-2,.33-4.07.76-6,1.26-1.67.41-2.18-2.2-.52-2.62a68.82,68.82,0,0,1,9.1-1.67c2.73-3.22,5.53-6.37,8.5-9.38a84.71,84.71,0,0,1,13.43-11.21,51.67,51.67,0,0,0-8.7-.62c-1.72,0-1.54-2.64.16-2.66a53.17,53.17,0,0,1,11.79,1.27,51.57,51.57,0,0,1,11.85-5l.63-.16-1.4-.56a1.36,1.36,0,0,1-.84-1.69,1.34,1.34,0,0,1,1.68-.84c1.73.69,3.47,1.41,5.16,2.25a17.48,17.48,0,0,1,5.86.36c3.64.9,7,3.47,8.08,7.06.07-.53.1-1.06.13-1.6C813.78,248.93,797.64,244.65,785.1,246.22Z" transform="translate(-571.14 -32.48)"/><path class="cls-9" d="M797.74,247.09a29.2,29.2,0,0,0-18.61-.54c-6.87,1.92-12.94,5.89-18.26,10.55a161.13,161.13,0,0,0-16.3,17.15q-8.05,9.45-15.22,19.6T716,314.65c-.51.88-1,1.77-1.52,2.66-.22.39.42.69.65.3q6-10.68,13-20.79t14.68-19.37A198.76,198.76,0,0,1,758.71,260c5.2-4.95,11.07-9.4,17.86-11.9A30.32,30.32,0,0,1,795.15,247c.78.23,1.54.49,2.29.79C797.87,247.91,798.17,247.26,797.74,247.09Z" transform="translate(-571.14 -32.48)"/><path class="cls-9" d="M790.48,250.61a26.06,26.06,0,0,0-11.74-3.49L788,240c.37-.28,0-.87-.4-.59l-10.05,7.73a.36.36,0,0,0,.24.65,25.39,25.39,0,0,1,12.39,3.48C790.57,251.49,790.87,250.84,790.48,250.61Z" transform="translate(-571.14 -32.48)"/><path class="cls-9" d="M768,263.09A75.6,75.6,0,0,0,751.46,269c-1.16.57-2.3,1.18-3.43,1.81a73.39,73.39,0,0,1,8.37-14.53q1.51-2,3.16-4c.3-.35-.25-.81-.55-.46a74.16,74.16,0,0,0-9.9,14.93c-.77,1.54-1.48,3.1-2.15,4.69a.36.36,0,0,0,.53.44,74.9,74.9,0,0,1,16-6.87q2.37-.7,4.78-1.26C768.71,263.65,768.46,263,768,263.09Z" transform="translate(-571.14 -32.48)"/><path class="cls-9" d="M746.88,286.18A50.15,50.15,0,0,0,732,292.81c-1,.67-2,1.39-3,2.13a112.75,112.75,0,0,1,6.4-18.9.36.36,0,0,0-.65-.3,115,115,0,0,0-6.69,20,.36.36,0,0,0,.56.35,49.7,49.7,0,0,1,14.07-7.92c1.43-.52,2.89-1,4.36-1.36C747.56,286.73,747.32,286.07,746.88,286.18Z" transform="translate(-571.14 -32.48)"/></g><ellipse class="cls-10" cx="144.52" cy="356.5" rx="103.02" ry="8.49"/><path class="cls-11" d="M695.85,174.22c-6.05,5.37-9.32,13.16-7.15,21.36,1.45,5.5,5,11.29,2.54,16.4-2.14,4.38-7.63,5.7-11.57,8.58a15.86,15.86,0,0,0,1.56,26.61c2.7,1.52,5.93,2.32,8,4.65,2.4,2.73,2.47,6.71,3.2,10.27,2.38,11.57,13.83,20.57,25.64,20.13,5-.18,10.28-2.21,12.64-6.59,1.76-3.24,1.68-7.35,3.93-10.28,3.1-4,9-4.05,13.78-5.78a18.38,18.38,0,0,0,7.16-29.82c-2.63-2.81-6.1-4.76-8.61-7.68-3.22-3.75-4.57-8.81-4.85-13.75s.39-9.88.73-14.81c.54-7.82,0-17.92-6.78-23.09-10.54-8-27-5.43-37.33,1.57A27.17,27.17,0,0,0,695.85,174.22Z" transform="translate(-571.14 -32.48)"/><path class="cls-9" d="M697.28,177.61c-5.63,5-8.68,12.26-6.66,19.9,1.35,5.12,4.69,10.52,2.36,15.28-2,4.08-7.11,5.31-10.77,8a14.78,14.78,0,0,0,1.44,24.8c2.52,1.42,5.53,2.17,7.44,4.34,2.24,2.54,2.31,6.24,3,9.56,2.21,10.79,12.89,19.17,23.89,18.76,4.63-.17,9.58-2.06,11.78-6.14,1.63-3,1.56-6.85,3.66-9.58,2.88-3.74,8.39-3.77,12.83-5.39a17.12,17.12,0,0,0,6.68-27.78c-2.45-2.62-5.68-4.44-8-7.16-3-3.49-4.26-8.2-4.53-12.81s.37-9.2.68-13.8c.51-7.28.05-16.7-6.31-21.52-9.82-7.43-25.13-5.06-34.78,1.47A24.88,24.88,0,0,0,697.28,177.61Z" transform="translate(-571.14 -32.48)"/><polygon class="cls-12" points="125.14 225.7 110.07 244.08 105.27 249.95 86.29 273.1 79.58 257.43 84.94 248.96 97 229.91 97.47 229.17 111.32 207.28 124.19 224.44 125.14 225.7"/><path class="cls-13" d="M696.28,258.19l-15.06,18.38-4.81,5.86a42.26,42.26,0,0,1-8.27-20l.48-.75,13.84-21.89,12.87,17.16Z" transform="translate(-571.14 -32.48)"/><path class="cls-14" d="M696.28,258.19l-15.06,18.38a17.61,17.61,0,0,1-4.57-3.8,78.16,78.16,0,0,1-8-11.12l13.84-21.89,12.87,17.16Z" transform="translate(-571.14 -32.48)"/><path class="cls-15" d="M676.64,272.77a18,18,0,0,0,4.57,3.8l15.07-18.39-.95-1.27C688.43,261.55,681.9,266.67,676.64,272.77Z" transform="translate(-571.14 -32.48)"/><path class="cls-12" d="M657.72,287a165.34,165.34,0,0,0-20.13-45.41c-1.73,1.49-4,2.07-5.74,3.55,2.82,15.33,5.56,30.26,8.38,45.58.72,3.94,1.48,8,3.36,11.36a11.57,11.57,0,0,0,6.31,5.65,7.05,7.05,0,0,0,7.53-2.19c1.76-2.12,2.35-5.28,2.14-8.23A62.73,62.73,0,0,0,657.72,287Z" transform="translate(-571.14 -32.48)"/><path class="cls-12" d="M638.41,242.17a15.61,15.61,0,0,0-4.06-4.72l-7.17-.59c-1.52.52-3,1.2-4.57,1.76a.49.49,0,0,0-.16.82c1.7,1.51,3.1,1.27,5.4.06,3.64,1.17,3,4.19,5,4.8A5.15,5.15,0,0,0,638.41,242.17Z" transform="translate(-571.14 -32.48)"/><path class="cls-12" d="M630.36,243.37l-7.07,1.14c-1.57-.71-4.21-1.3-5.78-2a15.21,15.21,0,0,0,4.13-3.14.41.41,0,0,0-.39-.67,21.41,21.41,0,0,0-6,1.72,1.39,1.39,0,0,0-.76,1.08c-.12.91-.11,1.66-.15,2.5a1.43,1.43,0,0,0,.65,1.27,18,18,0,0,0,5.2,2,24.1,24.1,0,0,0,10.12.34Z" transform="translate(-571.14 -32.48)"/><path class="cls-12" d="M618.3,248.65a8.3,8.3,0,0,1-.61-5.17c1.47-1,19-3.58,19.77-2.81s3,4.61,2.7,5.58c-.39,1.26-.3,2.71-1.43,3.18a74.25,74.25,0,0,1-15.1,3.65C620.84,253.41,619.61,251.38,618.3,248.65Z" transform="translate(-571.14 -32.48)"/><path class="cls-12" d="M624.94,244.23l-10.4,1.49a21.45,21.45,0,0,0-7.68-1.47c-.55,0-1.19.07-1.45.43a.67.67,0,0,0,.17.86,3.29,3.29,0,0,0,.93.56c1.78.81,5.63,1.63,7.41,2.44,4.2-.33,6.51,0,10.43-1.13a4.73,4.73,0,0,0,1.68-.78,1.33,1.33,0,0,0,.59-1.37A1.85,1.85,0,0,0,624.94,244.23Z" transform="translate(-571.14 -32.48)"/><path class="cls-12" d="M626.46,246.83l-10.39,1.49a21.53,21.53,0,0,0-7.68-1.47c-.55,0-1.2.07-1.45.43a.68.68,0,0,0,.16.86,3.35,3.35,0,0,0,.94.56c1.78.81,5.63,1.63,7.41,2.44,4.19-.33,6.5,0,10.43-1.12a4.92,4.92,0,0,0,1.68-.79,1.33,1.33,0,0,0,.58-1.37A1.83,1.83,0,0,0,626.46,246.83Z" transform="translate(-571.14 -32.48)"/><path class="cls-12" d="M629.42,249,619,250.48a21.45,21.45,0,0,0-7.68-1.47c-.54,0-1.19.07-1.44.43a.68.68,0,0,0,.16.86,3.35,3.35,0,0,0,.94.56c1.78.81,5.63,1.63,7.4,2.44,4.2-.33,6.51,0,10.44-1.13a4.9,4.9,0,0,0,1.68-.78,1.35,1.35,0,0,0,.58-1.38A1.86,1.86,0,0,0,629.42,249Z" transform="translate(-571.14 -32.48)"/><path class="cls-13" d="M636.76,244.06a11.44,11.44,0,0,1-9.73-1.6c-.38-.27-.77.34-.39.6a12.11,12.11,0,0,0,10.28,1.7C637.37,244.63,637.21,243.93,636.76,244.06Z" transform="translate(-571.14 -32.48)"/><polygon class="cls-12" points="206.61 257.43 174.88 207.28 161.05 225.7 199.91 273.1 206.61 257.43"/><path class="cls-13" d="M746,239.76l14.32,22.63a42.35,42.35,0,0,1-8.27,20L732.2,258.18Z" transform="translate(-571.14 -32.48)"/><path class="cls-14" d="M746,239.76l-12.87,17.16-.95,1.27,15.06,18.38a17.61,17.61,0,0,0,4.57-3.8,78.16,78.16,0,0,0,8-11.12Z" transform="translate(-571.14 -32.48)"/><path class="cls-15" d="M751.84,272.77a18,18,0,0,1-4.57,3.8L732.2,258.18l.95-1.27C740.06,261.55,746.58,266.67,751.84,272.77Z" transform="translate(-571.14 -32.48)"/><path class="cls-12" d="M770.76,287a165.34,165.34,0,0,1,20.13-45.41c1.73,1.49,4,2.07,5.74,3.55-2.82,15.33-5.56,30.26-8.38,45.58-.72,3.94-1.48,8-3.36,11.36a11.57,11.57,0,0,1-6.31,5.65,7.06,7.06,0,0,1-7.53-2.19c-1.76-2.12-2.35-5.28-2.14-8.23A62.73,62.73,0,0,1,770.76,287Z" transform="translate(-571.14 -32.48)"/><path class="cls-12" d="M790.07,242.17a15.61,15.61,0,0,1,4.06-4.72l7.18-.59c1.51.52,3,1.2,4.56,1.76a.49.49,0,0,1,.16.82c-1.7,1.51-3.1,1.27-5.4.06-3.64,1.17-3,4.19-5,4.8A5.15,5.15,0,0,1,790.07,242.17Z" transform="translate(-571.14 -32.48)"/><path class="cls-12" d="M798.13,243.37l7.06,1.14c1.57-.71,4.21-1.3,5.78-2a15.36,15.36,0,0,1-4.13-3.14.41.41,0,0,1,.39-.67,21.41,21.41,0,0,1,5.95,1.72,1.39,1.39,0,0,1,.76,1.08c.12.91.11,1.66.15,2.5a1.43,1.43,0,0,1-.65,1.27,18,18,0,0,1-5.2,2,24.06,24.06,0,0,1-10.11.34Z" transform="translate(-571.14 -32.48)"/><path class="cls-12" d="M810.18,248.65a8.23,8.23,0,0,0,.61-5.17c-1.47-1-19-3.58-19.76-2.81s-3,4.61-2.71,5.58c.39,1.26.31,2.71,1.43,3.18a74.25,74.25,0,0,0,15.1,3.65C807.64,253.41,808.88,251.38,810.18,248.65Z" transform="translate(-571.14 -32.48)"/><path class="cls-12" d="M803.54,244.23l10.4,1.49a21.45,21.45,0,0,1,7.68-1.47c.55,0,1.19.07,1.45.43a.68.68,0,0,1-.16.86,3.5,3.5,0,0,1-.94.56c-1.78.81-5.63,1.63-7.41,2.44-4.19-.33-6.51,0-10.43-1.13a4.73,4.73,0,0,1-1.68-.78,1.35,1.35,0,0,1-.59-1.37A1.85,1.85,0,0,1,803.54,244.23Z" transform="translate(-571.14 -32.48)"/><path class="cls-12" d="M802,246.83l10.4,1.49a21.44,21.44,0,0,1,7.67-1.47c.55,0,1.2.07,1.45.43a.68.68,0,0,1-.16.86,3.35,3.35,0,0,1-.94.56c-1.78.81-5.63,1.63-7.41,2.44-4.19-.33-6.5,0-10.43-1.12a5.11,5.11,0,0,1-1.68-.79,1.33,1.33,0,0,1-.58-1.37A1.84,1.84,0,0,1,802,246.83Z" transform="translate(-571.14 -32.48)"/><path class="cls-12" d="M799.06,249l10.4,1.49a21.45,21.45,0,0,1,7.68-1.47c.54,0,1.19.07,1.45.43a.69.69,0,0,1-.17.86,3.21,3.21,0,0,1-.94.56c-1.78.81-5.63,1.63-7.4,2.44-4.2-.33-6.51,0-10.43-1.13a4.86,4.86,0,0,1-1.69-.78,1.35,1.35,0,0,1-.58-1.38A1.86,1.86,0,0,1,799.06,249Z" transform="translate(-571.14 -32.48)"/><path class="cls-13" d="M791.72,244.06a11.43,11.43,0,0,0,9.73-1.6c.38-.27.77.34.39.6a12.11,12.11,0,0,1-10.28,1.7C791.12,244.63,791.27,243.93,791.72,244.06Z" transform="translate(-571.14 -32.48)"/><path class="cls-12" d="M746.56,318.4a76.69,76.69,0,0,0-7.9-10.13c-4.37-.25-38-.23-42,0a77.87,77.87,0,0,0-10.36,14.13A130,130,0,0,0,746.56,318.4Z" transform="translate(-571.14 -32.48)"/><path class="cls-14" d="M682.46,239.76s28.82-13,63.56,0l-7.36,68.51h0c-17.85,7.17-42,0-42,0Z" transform="translate(-571.14 -32.48)"/><path class="cls-14" d="M789.47,327.59c-1-2.66-3.93-4.19-6.76-4.32s-5.59.87-8.21,1.94a132.42,132.42,0,0,0-19.71,10.05,71.51,71.51,0,0,0-8.23-16.86,130,130,0,0,1-60.22,4,68.87,68.87,0,0,0-5.77,12.86,132.9,132.9,0,0,0-19.71-10.05c-2.63-1.07-5.38-2.07-8.21-1.94s-5.78,1.66-6.76,4.32a14.08,14.08,0,0,0,.11,10.6,33.67,33.67,0,0,0,6.42,8.52c8.11,8.52,17.07,16.36,27.35,22.07s22,9.23,33.72,8.8c-.06-3.23.06-3.23,0,0,11.75.43,31.81-3.09,42.1-8.8s19.24-13.55,27.35-22.07a33.67,33.67,0,0,0,6.42-8.52A14.08,14.08,0,0,0,789.47,327.59Z" transform="translate(-571.14 -32.48)"/><path class="cls-15" d="M645,332.24a12.39,12.39,0,0,0,1,5.95,33.67,33.67,0,0,0,6.42,8.52c8.11,8.52,17.07,16.36,27.35,22.07s22,9.23,33.72,8.8c-.06-3.23.06-3.23,0,0,11.75.43,31.81-3.09,42.1-8.8s19.24-13.55,27.35-22.07a33.67,33.67,0,0,0,6.42-8.52,14.08,14.08,0,0,0,.11-10.6,5.94,5.94,0,0,0-1.66-2.36c-16.52,5.21-31.26,16.58-45.28,28.34a33.48,33.48,0,0,1-40.2,2.12C684.76,343.83,664.45,334.29,645,332.24Z" transform="translate(-571.14 -32.48)"/><path class="cls-12" d="M710.5,218.42,710,231.24a5.7,5.7,0,0,1-2,4,2.19,2.19,0,0,0-.36.39,3.27,3.27,0,0,0-.47,2.65c.24.87,8.57,15.45,13,11.66.68-.58,4.89-10.35,5.28-11.24a3.62,3.62,0,0,0,.05-2.92,1.83,1.83,0,0,0-.52-.64,6.17,6.17,0,0,1-2.4-3.57,74.58,74.58,0,0,1-1.28-12.69Z" transform="translate(-571.14 -32.48)"/><path class="cls-13" d="M719.35,227.26a7,7,0,0,0,2.5-1c-.28-2.47-.44-5-.48-7.45l-10.87-.43c-.07,1.72-.13,3.43-.2,5.15C712.93,225.49,716.26,227.76,719.35,227.26Z" transform="translate(-571.14 -32.48)"/><path class="cls-13" d="M704.15,202.7A7.1,7.1,0,0,0,702,202a2.38,2.38,0,0,0-2.08.78,2.49,2.49,0,0,0-.13,2.48,4.26,4.26,0,0,0,3.81,2.52Z" transform="translate(-571.14 -32.48)"/><path class="cls-13" d="M728.55,202.7a7.27,7.27,0,0,1,2.19-.7,2.38,2.38,0,0,1,2.08.78,2.46,2.46,0,0,1,.13,2.48,4.25,4.25,0,0,1-3.81,2.52Z" transform="translate(-571.14 -32.48)"/><path class="cls-12" d="M716.64,222.51c-3.82.17-11.86-4.48-12.85-11.86l-.56-4.52-1.29-8.42a14.56,14.56,0,0,1,14.7-14.93h0c1,11.87,14.7,6.68,14.7,14.93l-1.82,10.68a12.87,12.87,0,0,0-.15,1.51C728.9,217.69,721.42,222.3,716.64,222.51Z" transform="translate(-571.14 -32.48)"/><path class="cls-13" d="M719.11,215.82a10.08,10.08,0,0,1-5.42,0c-.33-.09-.49.42-.16.51a10.61,10.61,0,0,0,5.7,0C719.56,216.25,719.44,215.73,719.11,215.82Z" transform="translate(-571.14 -32.48)"/><path class="cls-9" d="M711.5,201.55a7.45,7.45,0,0,1-5.32-.1c-.32-.13-.48.38-.17.51a7.92,7.92,0,0,0,5.61.11C711.93,202,711.82,201.43,711.5,201.55Z" transform="translate(-571.14 -32.48)"/><path class="cls-9" d="M727.44,201.55a7.45,7.45,0,0,1-5.32-.1c-.32-.13-.48.38-.17.51a7.92,7.92,0,0,0,5.61.11C727.87,202,727.76,201.43,727.44,201.55Z" transform="translate(-571.14 -32.48)"/><path class="cls-12" d="M773.73,326.58c-21.56,17.76-48.29,41.6-69.85,59.35,3.34,6.79,2.36,6.07,5.71,12.86,24.54-9,54.91-21.64,74.38-39.08,3.53-3.16,7-6.48,9.46-10.51s3.9-8.89,3-13.54a15.13,15.13,0,0,0-9.2-11.14A13.21,13.21,0,0,0,773.73,326.58Z" transform="translate(-571.14 -32.48)"/><path class="cls-13" d="M703.88,385.93c3.34,6.79,2.36,6.07,5.71,12.86a402.11,402.11,0,0,0,38.88-16.28c-9.65-1.59-18.85-5.12-26.55-11.75C715.67,376.09,709.59,381.23,703.88,385.93Z" transform="translate(-571.14 -32.48)"/><path class="cls-12" d="M796.47,335.66a15.13,15.13,0,0,0-9.2-11.14,13.21,13.21,0,0,0-13.54,2.06c-15.85,13.05-34.48,29.38-51.81,44.18,7.7,6.63,16.9,10.16,26.55,11.75,13.17-6.48,25.71-14,35.5-22.8,3.53-3.16,7-6.48,9.46-10.51S797.33,340.31,796.47,335.66Z" transform="translate(-571.14 -32.48)"/><path class="cls-9" d="M704.4,386.25l-.52-.32-24.81,10.72a12.19,12.19,0,0,0-2.36,1.36,11.76,11.76,0,1,0,14.35,18.62,9.78,9.78,0,0,0,.85-.74l17.68-17.1h0A11.55,11.55,0,0,0,704.4,386.25Z" transform="translate(-571.14 -32.48)"/><path class="cls-12" d="M661.63,326.58c21.56,17.76,48.29,41.6,69.85,59.35-3.35,6.79-2.46,5.64-5.8,12.43-24.55-9-54.82-21.21-74.29-38.65-3.53-3.16-7-6.48-9.46-10.51s-3.9-8.89-3-13.54a15.13,15.13,0,0,1,9.2-11.14A13.21,13.21,0,0,1,661.63,326.58Z" transform="translate(-571.14 -32.48)"/><path class="cls-9" d="M758.64,398a11.62,11.62,0,0,0-2.36-1.36l-24.8-10.72-.52.32a11.53,11.53,0,0,0-5.19,12.54h0l17.68,17.1a9.78,9.78,0,0,0,.85.74A11.75,11.75,0,1,0,758.64,398Z" transform="translate(-571.14 -32.48)"/><path class="cls-13" d="M716.78,209.77a1.09,1.09,0,0,1-1.65-.19,3.65,3.65,0,0,1-.41-1.9c-.08-1.75-.08-3.5,0-5.25a.36.36,0,0,0-.72,0c0,1.12-.05,2.23,0,3.35a26.12,26.12,0,0,0,.14,2.93,2.48,2.48,0,0,0,1,1.87,1.83,1.83,0,0,0,2.13-.25C717.61,210,717.12,209.46,716.78,209.77Z" transform="translate(-571.14 -32.48)"/><path class="cls-9" d="M719.16,213.15a4.1,4.1,0,0,1-5.79.1c-.33-.32-.86.17-.53.49a4.84,4.84,0,0,0,6.81-.05C720,213.36,719.49,212.82,719.16,213.15Z" transform="translate(-571.14 -32.48)"/><path class="cls-16" d="M740.58,393.3a11.25,11.25,0,0,0-5.83,9.9c0,.46.73.49.72,0a10.53,10.53,0,0,1,5.44-9.29A.36.36,0,0,0,740.58,393.3Z" transform="translate(-571.14 -32.48)"/><path class="cls-16" d="M746.16,395.76a9.91,9.91,0,0,0-6.7,9.87c0,.46.75.5.72,0a9.21,9.21,0,0,1,6.14-9.2C746.76,396.31,746.6,395.61,746.16,395.76Z" transform="translate(-571.14 -32.48)"/><path class="cls-16" d="M693.22,393.3a11.22,11.22,0,0,1,5.82,9.9c0,.46-.72.49-.72,0a10.49,10.49,0,0,0-5.44-9.29A.36.36,0,0,1,693.22,393.3Z" transform="translate(-571.14 -32.48)"/><path class="cls-16" d="M687.64,395.76a9.89,9.89,0,0,1,6.69,9.87c0,.46-.74.5-.71,0a9.2,9.2,0,0,0-6.15-9.2C687,396.31,687.2,395.61,687.64,395.76Z" transform="translate(-571.14 -32.48)"/><path class="cls-15" d="M716.42,253.07c-4-3.66-8-7.43-10.46-12.33a20.41,20.41,0,0,1-1.51-4.15.36.36,0,0,0-.7.16c1.27,5.32,4.77,9.68,8.58,13.45,1.16,1.14,2.36,2.25,3.56,3.35C716.22,253.87,716.76,253.38,716.42,253.07Z" transform="translate(-571.14 -32.48)"/><path class="cls-15" d="M726.69,240.88q-2.1,4.73-4.18,9.47c-.19.43.5.64.68.22q2.1-4.74,4.18-9.47C727.56,240.67,726.87,240.46,726.69,240.88Z" transform="translate(-571.14 -32.48)"/><path class="cls-15" d="M767.26,327.85A84.13,84.13,0,0,0,742,344.55a81,81,0,0,0-5.82,6.19c-.46.53.42,1.17.87.64a83,83,0,0,1,23.13-18.89q3.66-2,7.52-3.66A.54.54,0,0,0,767.26,327.85Z" transform="translate(-571.14 -32.48)"/><path class="cls-15" d="M703.06,353.58a92.18,92.18,0,0,0-17.5-16.15c-1.88-1.32-3.81-2.58-5.78-3.76-.59-.36-1.24.52-.64.87a91.7,91.7,0,0,1,18.55,14.68q2.35,2.44,4.53,5C702.67,354.8,703.51,354.11,703.06,353.58Z" transform="translate(-571.14 -32.48)"/><path class="cls-15" d="M744.05,324.9a88.1,88.1,0,0,1-42.39,5.49,85.76,85.76,0,0,1-12-2.27c-.67-.18-1.07.83-.4,1a88.9,88.9,0,0,0,55.26-3.24C745.14,325.64,744.7,324.65,744.05,324.9Z" transform="translate(-571.14 -32.48)"/><path class="cls-2" d="M711.4,349.59a47.09,47.09,0,0,1-.76-20c.12-.68-.95-.8-1.07-.12a47.64,47.64,0,0,0,.76,20.27C710.5,350.43,711.57,350.27,711.4,349.59Z" transform="translate(-571.14 -32.48)"/><path class="cls-2" d="M725.36,330.24c-.37-.59-1.2.1-.84.68a26.61,26.61,0,0,1,3.21,20.27c-.17.67.91.79,1.07.12A27.61,27.61,0,0,0,725.36,330.24Z" transform="translate(-571.14 -32.48)"/><path class="cls-9" d="M727.66,196.31a9,9,0,0,0-6.88-.11c-.64.26-.2,1.24.45,1a7.83,7.83,0,0,1,6,.13C727.9,197.6,728.29,196.59,727.66,196.31Z" transform="translate(-571.14 -32.48)"/><path class="cls-9" d="M711.27,196.21a8.43,8.43,0,0,0-6.91.79.55.55,0,0,0-.27.71.54.54,0,0,0,.72.27,7.4,7.4,0,0,1,6.07-.76C711.54,197.43,711.94,196.42,711.27,196.21Z" transform="translate(-571.14 -32.48)"/><path class="cls-15" d="M697.05,288.87c5.41,1.08,11.91,2.17,17.32,0C703,286,695,275.74,688.06,266.69l8.64,41.58s24.11,7.17,42,0l.09-.83A45.92,45.92,0,0,1,697.05,288.87Z" transform="translate(-571.14 -32.48)"/><path class="cls-17" d="M626.88,191a1.26,1.26,0,1,1-1.25,1.25A1.25,1.25,0,0,1,626.88,191Z" transform="translate(-571.14 -32.48)"/><path class="cls-17" d="M626.88,174.64a1.26,1.26,0,1,1-1.25,1.25A1.25,1.25,0,0,1,626.88,174.64Z" transform="translate(-571.14 -32.48)"/><path class="cls-17" d="M626.88,158.28a1.25,1.25,0,1,1-1.25,1.25A1.25,1.25,0,0,1,626.88,158.28Z" transform="translate(-571.14 -32.48)"/><path class="cls-17" d="M626.88,141.92a1.25,1.25,0,1,1-1.25,1.25A1.25,1.25,0,0,1,626.88,141.92Z" transform="translate(-571.14 -32.48)"/><path class="cls-17" d="M643.1,191a1.26,1.26,0,0,1,0,2.51,1.26,1.26,0,1,1,0-2.51Z" transform="translate(-571.14 -32.48)"/><path class="cls-17" d="M643.1,174.64a1.26,1.26,0,0,1,0,2.51,1.26,1.26,0,1,1,0-2.51Z" transform="translate(-571.14 -32.48)"/><path class="cls-17" d="M643.1,158.28a1.25,1.25,0,1,1-1.26,1.25A1.25,1.25,0,0,1,643.1,158.28Z" transform="translate(-571.14 -32.48)"/><path class="cls-17" d="M643.1,141.92a1.25,1.25,0,1,1-1.26,1.25A1.25,1.25,0,0,1,643.1,141.92Z" transform="translate(-571.14 -32.48)"/><path class="cls-17" d="M659.32,191a1.26,1.26,0,1,1-1.26,1.25A1.25,1.25,0,0,1,659.32,191Z" transform="translate(-571.14 -32.48)"/><path class="cls-17" d="M659.32,174.64a1.26,1.26,0,1,1-1.26,1.25A1.25,1.25,0,0,1,659.32,174.64Z" transform="translate(-571.14 -32.48)"/><path class="cls-17" d="M659.32,158.28a1.25,1.25,0,1,1-1.26,1.25A1.25,1.25,0,0,1,659.32,158.28Z" transform="translate(-571.14 -32.48)"/><path class="cls-17" d="M659.32,141.92a1.25,1.25,0,1,1-1.26,1.25A1.25,1.25,0,0,1,659.32,141.92Z" transform="translate(-571.14 -32.48)"/><path class="cls-17" d="M675.54,191a1.26,1.26,0,1,1-1.26,1.25A1.25,1.25,0,0,1,675.54,191Z" transform="translate(-571.14 -32.48)"/><path class="cls-17" d="M675.54,174.64a1.26,1.26,0,1,1-1.26,1.25A1.25,1.25,0,0,1,675.54,174.64Z" transform="translate(-571.14 -32.48)"/><path class="cls-17" d="M675.54,158.28a1.25,1.25,0,1,1-1.26,1.25A1.25,1.25,0,0,1,675.54,158.28Z" transform="translate(-571.14 -32.48)"/><path class="cls-17" d="M675.54,141.92a1.25,1.25,0,1,1-1.26,1.25A1.25,1.25,0,0,1,675.54,141.92Z" transform="translate(-571.14 -32.48)"/><path class="cls-17" d="M805.65,385.9a1,1,0,1,1-1-1A1,1,0,0,1,805.65,385.9Z" transform="translate(-571.14 -32.48)"/><path class="cls-17" d="M818.22,385.9a1,1,0,1,1-1.93,0,1,1,0,0,1,1.93,0Z" transform="translate(-571.14 -32.48)"/><path class="cls-17" d="M805.65,398.36a1,1,0,1,1-1.93,0,1,1,0,0,1,1.93,0Z" transform="translate(-571.14 -32.48)"/><path class="cls-17" d="M818.22,398.36a1,1,0,1,1-1.93,0,1,1,0,0,1,1.93,0Z" transform="translate(-571.14 -32.48)"/><path class="cls-17" d="M805.65,410.82a1,1,0,1,1-1-1A1,1,0,0,1,805.65,410.82Z" transform="translate(-571.14 -32.48)"/><path class="cls-17" d="M818.22,410.82a1,1,0,1,1-1-1A1,1,0,0,1,818.22,410.82Z" transform="translate(-571.14 -32.48)"/><path class="cls-17" d="M805.65,423.28a1,1,0,1,1-1-1A1,1,0,0,1,805.65,423.28Z" transform="translate(-571.14 -32.48)"/><path class="cls-17" d="M818.22,423.28a1,1,0,1,1-1-1A1,1,0,0,1,818.22,423.28Z" transform="translate(-571.14 -32.48)"/><path class="cls-17" d="M805.65,435.74a1,1,0,1,1-1-1A1,1,0,0,1,805.65,435.74Z" transform="translate(-571.14 -32.48)"/><path class="cls-17" d="M818.22,435.74a1,1,0,1,1-1-1A1,1,0,0,1,818.22,435.74Z" transform="translate(-571.14 -32.48)"/><path class="cls-17" d="M805.65,448.19a1,1,0,1,1-1-1A1,1,0,0,1,805.65,448.19Z" transform="translate(-571.14 -32.48)"/><path class="cls-17" d="M818.22,448.19a1,1,0,1,1-1.93,0,1,1,0,0,1,1.93,0Z" transform="translate(-571.14 -32.48)"/><path class="cls-17" d="M805.65,460.65a1,1,0,1,1-1.93,0,1,1,0,0,1,1.93,0Z" transform="translate(-571.14 -32.48)"/><path class="cls-17" d="M818.22,460.65a1,1,0,1,1-1.93,0,1,1,0,0,1,1.93,0Z" transform="translate(-571.14 -32.48)"/><text x="-571.14" y="-32.48"/></svg>