<svg id="OBJECTS" xmlns="http://www.w3.org/2000/svg" xmlns:xlink="http://www.w3.org/1999/xlink" viewBox="0 0 302.7 473.56"><defs><style>.cls-1{fill:none;}.cls-2{fill:#f1faee;}.cls-24,.cls-3,.cls-4{fill:#457b9d;}.cls-3{opacity:0.09;}.cls-4{font-size:29.98px;font-family:PlayfairDisplay-Regular, PlayfairDisplay Regular;letter-spacing:0.1em;}.cls-5{letter-spacing:0.1em;}.cls-6{letter-spacing:0.1em;}.cls-7{letter-spacing:0.1em;}.cls-8{fill:#37627d;}.cls-9{fill:#e63946;}.cls-10{fill:#96252d;}.cls-11{fill:#82bebf;}.cls-12{fill:#a8dadc;}.cls-13{fill:#de802c;}.cls-14{fill:#0c1624;}.cls-15{fill:#1d3557;}.cls-16{fill:#2a4e80;}.cls-17{fill:#140d0c;opacity:0.2;}.cls-18{fill:#6b3e15;}.cls-19{clip-path:url(#clip-path);}.cls-20{fill:#ffb59e;}.cls-21{fill:#e09680;}.cls-22{fill:#ff8a65;}.cls-23{fill:#fff;}</style><clipPath id="clip-path" transform="translate(-874.71 -32.48)"><rect class="cls-1" x="874.71" y="32.48" width="240.38" height="433.36"/></clipPath></defs><rect class="cls-2" width="240.38" height="433.36"/><path class="cls-3" d="M874.71,230.26V465.84h240.38V231.55c-41.19-16.22-85.44-21-127.73-23.07C948.68,206.7,911.19,215.22,874.71,230.26Z" transform="translate(-874.71 -32.48)"/><path class="cls-3" d="M874.71,143.17a348.24,348.24,0,0,0,82.65-12.69c8-2.47,15-3.71,23-6.8,11-4.32,19-9.27,26-15.45,34.47-25.84,68-54.25,108.67-75.75H874.71Z" transform="translate(-874.71 -32.48)"/><text class="cls-4" transform="translate(9.03 49.78)">O<tspan class="cls-5" x="23.65" y="0">r</tspan><tspan class="cls-6" x="36.57" y="0">ie</tspan><tspan class="cls-7" x="64.6" y="0">n</tspan><tspan x="84.12" y="0">tación</tspan></text><path class="cls-8" d="M1014.9,386c-1.91,0-2.27,3-.34,3S1016.83,386,1014.9,386Z" transform="translate(-874.71 -32.48)"/><path class="cls-9" d="M1000.36,272.67H874.71v34H1038.8A38.74,38.74,0,0,0,1000.36,272.67Z" transform="translate(-874.71 -32.48)"/><path class="cls-10" d="M874.71,306.67V428.13h164.38V311.4a41.14,41.14,0,0,0-.29-4.73Z" transform="translate(-874.71 -32.48)"/><rect class="cls-10" y="395.64" width="176.91" height="37.71"/><path class="cls-11" d="M998.87,318.55a298.7,298.7,0,0,1,1.87-34.9c.82-6.67-1.94-20-4.61-26.14s-8.93-11.34-15.6-10.49c-4.73.6-8.71,4.08-11.07,8.23s-3.35,8.91-4.18,13.61a257.3,257.3,0,0,0-3.75,48.67C973.46,321.45,987.3,322.66,998.87,318.55Z" transform="translate(-874.71 -32.48)"/><path class="cls-12" d="M1000.86,279.74c-.24-7.08-2.51-17.11-4.73-22.23-2.67-6.17-8.93-11.34-15.6-10.49-4.73.6-8.71,4.08-11.07,8.23s-3.35,8.91-4.18,13.61A254.79,254.79,0,0,0,961.52,314C976.06,304.41,989.47,293.27,1000.86,279.74Z" transform="translate(-874.71 -32.48)"/><path class="cls-13" d="M997,362.2c1.75-14.33,1.74-31.32,1.86-43.65-11.57,4.11-25.41,2.9-37.34-1a314,314,0,0,0,7.3,62.08c.7,3.18,3.19,5.3,6.07,6.83,22.48,11.94,27.77,16.14,51.8,22.39,1.8-2.69,6.57-4.63,8.37-7.32C1017.54,384.65,1017.54,384.65,997,362.2Z" transform="translate(-874.71 -32.48)"/><path class="cls-13" d="M1023.45,399.32a122.38,122.38,0,0,1,24.39-3.94c2.27-.13,4.82-.11,6.49,1.41,1.84,1.66,1.86,4.42,1.75,6.84-.16,3.37-.5,7.13-3.13,9.33-2.24,1.86-5.49,2-8.44,1.79a47.63,47.63,0,0,1-22.44-7.57Z" transform="translate(-874.71 -32.48)"/><path class="cls-13" d="M1052,395.55l10.21,1.5c1.07,2.57,2.34,5.08,3.41,7.65-.49,2.18-.91,4.87-1.4,7.05a5.38,5.38,0,0,1-2-6.48c-.79-1-1.44-2.65-2.23-3.67-2.7-.38-5.65-1.26-8.35-1.64Z" transform="translate(-874.71 -32.48)"/><path class="cls-13" d="M1049.2,400.73l10.21,1.49c1.07,2.57,2.34,5.08,3.41,7.66-.49,2.17-.91,4.87-1.4,7a5.37,5.37,0,0,1-2-6.48c-.79-1-1.44-2.65-2.23-3.66-2.7-.39-5.65-1.26-8.35-1.65Z" transform="translate(-874.71 -32.48)"/><path class="cls-13" d="M1045.79,403.34l10.21,1.49c1.07,2.57,2.34,5.09,3.41,7.66-.49,2.18-.9,4.87-1.4,7.05a5.39,5.39,0,0,1-2-6.49c-.79-1-1.44-2.65-2.23-3.66-2.7-.39-5.64-1.26-8.35-1.65Z" transform="translate(-874.71 -32.48)"/><path class="cls-13" d="M1042.39,406.24l10.21,1.5c1.07,2.57,2.34,5.08,3.41,7.65-.49,2.18-.9,4.87-1.39,7.05a5.36,5.36,0,0,1-2-6.48c-.79-1-1.44-2.65-2.23-3.67-2.7-.38-5.64-1.26-8.35-1.64Z" transform="translate(-874.71 -32.48)"/><path class="cls-12" d="M985.69,247.13c-4-2.69-61.94-5.13-82.66,1.31-5.69,1.77-11.52,7.44-12.49,12.63-.75,3.95-.37,7.77,0,11.56,1.86,19.44,3.19,39.72,4.24,60.18.53,10.53,1,21.12,1.36,31.66-.21,5.16.56,32.95.59,37.84-.6,9.11,72.68,24.22,95.75,3.19,3.59-4.36.8-17.74.51-22.75-.72-12.55-2.59-25.15-2-37.64,1.25-26.65.95-53.15.59-79.82C991.46,257.5,992.61,251.77,985.69,247.13Z" transform="translate(-874.71 -32.48)"/><path class="cls-12" d="M991,345.11c1.25-26.65.95-53.15.59-79.82-.1-7.79,1.05-13.52-5.87-18.16-4-2.69-61.94-5.13-82.66,1.31-5.69,1.77-11.52,7.44-12.49,12.63-.75,3.95-.37,7.77,0,11.56.12,1.17.22,2.34.33,3.51,13.53,34.61,29.58,71.85,66.5,85.92-6,1-12-1-18-1a91.21,91.21,0,0,0,53.46,19.19C992,368.53,990.43,356.77,991,345.11Z" transform="translate(-874.71 -32.48)"/><path class="cls-11" d="M957.36,362.06c-36.92-14.07-53-51.31-66.5-85.92,1.68,18.37,2.92,37.43,3.91,56.67.53,10.53,1,21.12,1.36,31.66-.21,5.16.56,32.95.59,37.84-.6,9.11,72.68,24.22,95.75,3.19,3.59-4.36.8-17.74.51-22.75-.05-.83-.1-1.67-.16-2.5a91.21,91.21,0,0,1-53.46-19.19C945.36,361.06,951.36,363.06,957.36,362.06Z" transform="translate(-874.71 -32.48)"/><path class="cls-11" d="M896.13,364.47c-.37-10.54-.83-21.13-1.36-31.66-.89-17.37-2-34.6-3.45-51.3,7.82,28.69,4.2,62,18.1,92.32,2.82,5.81,4.89,13.92,12.62,17.38-4.85,0-15-3.46-13.34,0,18.72,31.13,61.12,27.82,84.87,11.09a5.34,5.34,0,0,1-1.1,3.2c-23.07,21-98,14.77-95.75-3.19C897.32,397.45,895.92,369.63,896.13,364.47Z" transform="translate(-874.71 -32.48)"/><path class="cls-14" d="M1025.9,465.84h38.78c4.06-16.34,5.39-51.46-1.64-55.88-8.32-5.21-81-12.08-98-7.26-4.76,1.35-9.42,3.23-14.33,3.81a21.82,21.82,0,0,1-9.15-.91c-1.65-.51-3.75-1.56-5.38-.47-2,1.33-2.83,5.08-3.45,7.22a35,35,0,0,0-1.39,9,33.51,33.51,0,0,0,1.22,9.86,34.55,34.55,0,0,0,21,22.65c9.79,3.6,20.59,2.52,31,1.39l41-4.45S1025.34,458.52,1025.9,465.84Z" transform="translate(-874.71 -32.48)"/><path class="cls-15" d="M986.85,465.84h38.79c4-16.34,5.39-51.46-1.65-55.88-8.31-5.21-81-12.08-98-7.26-4.77,1.35-9.42,3.23-14.34,3.81a21.77,21.77,0,0,1-9.14-.91c-1.65-.51-3.76-1.56-5.39-.47-2,1.33-2.82,5.08-3.44,7.22a35.4,35.4,0,0,0-1.4,9,33.19,33.19,0,0,0,1.23,9.86,34.54,34.54,0,0,0,21,22.65c9.79,3.6,20.6,2.52,31,1.39l41-4.45S986.29,458.52,986.85,465.84Z" transform="translate(-874.71 -32.48)"/><path class="cls-14" d="M997.53,431.69A35,35,0,0,0,985.36,455c-.06.64.94.76,1,.12a34.25,34.25,0,0,1,7.72-18.5,33.87,33.87,0,0,1,4.08-4.13C998.65,432.05,998,431.27,997.53,431.69Z" transform="translate(-874.71 -32.48)"/><path class="cls-14" d="M992.49,425a39.55,39.55,0,0,0-9.07,22.41c0,.64.94.76,1,.12a38.72,38.72,0,0,1,8.89-21.94C993.71,425.06,992.9,424.48,992.49,425Z" transform="translate(-874.71 -32.48)"/><path class="cls-16" d="M969.68,202.52c1.43-7,3.19-14.3-2.78-19.73a20,20,0,0,0-7.79-4.17c-12.75-3.81-26.66,1.78-31.46,14.58a28.34,28.34,0,0,0,3,24.91c2.51,3.88,5.89,7.13,9.23,10.33,9.58-8.27,19.21-16.48,28.73-24.83C969,203.26,969.57,203,969.68,202.52Z" transform="translate(-874.71 -32.48)"/><path class="cls-15" d="M969.75,204c1.36-6.56,3-13.49-2.61-18.61a18.78,18.78,0,0,0-7.35-3.93c-12-3.6-25.14,1.67-29.67,13.75a26.75,26.75,0,0,0,2.8,23.49,56.64,56.64,0,0,0,8.71,9.74c9-7.8,18.12-15.54,27.09-23.41C969.1,204.7,969.66,204.46,969.75,204Z" transform="translate(-874.71 -32.48)"/><path class="cls-13" d="M935.87,216.59a218.5,218.5,0,0,1-4.39,29.91,5.88,5.88,0,0,0,2.32,6.12,19.16,19.16,0,0,0,15,3.07,5.93,5.93,0,0,0,4.7-5.19c.66-6.4,1.27-12.94,1.94-19.28Z" transform="translate(-874.71 -32.48)"/><path class="cls-17" d="M935.87,216.59c-.44,5.81-1.13,11.61-2,17.37,2.52,5.2,6.77,9.09,12.26,12a31.82,31.82,0,0,0,7.66,2.25c.57-5.67,1.12-11.41,1.71-17Z" transform="translate(-874.71 -32.48)"/><path class="cls-13" d="M960.15,236.45c-17.39,2.08-23.66-8.24-24-17.26a7,7,0,0,1-7.43-5.25,6.25,6.25,0,0,1,1-5.15,4.93,4.93,0,0,1,4.76-1.89,4.07,4.07,0,0,1,3.23,3.81l3.84-5.57c.25-3.64.14-8,.39-11.61a44.36,44.36,0,0,1,26.19-3.33,56,56,0,0,1,2.14,8.86C970.49,215.62,974.18,234.78,960.15,236.45Z" transform="translate(-874.71 -32.48)"/><path class="cls-18" d="M936.9,213c-.3-1.55-.71-3.32-2.12-4.24a2.72,2.72,0,0,0-3.71.48.49.49,0,0,0,.18.65.5.5,0,0,0,.65-.19c.57-.8,1.88-.54,2.54,0,1,.83,1.31,2.36,1.55,3.59a.47.47,0,1,0,.91-.27Z" transform="translate(-874.71 -32.48)"/><path class="cls-18" d="M959,228.1l-2.5-.25a.49.49,0,0,0-.56.38.48.48,0,0,0,.37.56l2.5.24a.49.49,0,0,0,.56-.37A.47.47,0,0,0,959,228.1Z" transform="translate(-874.71 -32.48)"/><path class="cls-18" d="M965.49,214.92a7.43,7.43,0,0,0-.81-1.71l-1.12-2c-.77-1.39-1.54-2.77-2.3-4.16-.31-.55-1.21-.15-.9.41l2,3.62c.65,1.18,1.38,2.34,2,3.56,1.19,2.51-2.37,3.45-3.57,5a.49.49,0,0,0,.8.58c.75-1,2-1.44,2.85-2.28A3,3,0,0,0,965.49,214.92Z" transform="translate(-874.71 -32.48)"/><path class="cls-15" d="M953,205.26c-1.83,0-2.17,2.85-.33,2.85S954.84,205.26,953,205.26Z" transform="translate(-874.71 -32.48)"/><path class="cls-15" d="M966.36,204.71c-1.83,0-2.17,2.85-.33,2.85S968.2,204.71,966.36,204.71Z" transform="translate(-874.71 -32.48)"/><path class="cls-15" d="M956.69,198.46a16.06,16.06,0,0,0-7.91.32.58.58,0,0,0,.32,1.11,15,15,0,0,1,7.31-.3C957.14,199.75,957.42,198.62,956.69,198.46Z" transform="translate(-874.71 -32.48)"/><path class="cls-15" d="M969.52,198.46a16.06,16.06,0,0,0-7.91.32.58.58,0,0,0,.32,1.11,15,15,0,0,1,7.31-.3C970,199.75,970.25,198.62,969.52,198.46Z" transform="translate(-874.71 -32.48)"/><path class="cls-15" d="M962.32,223.43a22.15,22.15,0,0,1-10.59-.39c-.9-.26-1.46.63-.57.89a24.47,24.47,0,0,0,11.79.37C963.89,224.1,963.25,223.23,962.32,223.43Z" transform="translate(-874.71 -32.48)"/><path class="cls-11" d="M958.07,253.94a18.58,18.58,0,0,1-15.13,5.64,17.9,17.9,0,0,1-13.32-7.92c-.44-.69-1.7-.18-1.26.52a19,19,0,0,0,10.62,7.9,20.35,20.35,0,0,0,13.8-.87,19,19,0,0,0,6.4-4.53C959.75,254.06,958.64,253.32,958.07,253.94Z" transform="translate(-874.71 -32.48)"/><path class="cls-12" d="M920.43,323.29a296.29,296.29,0,0,1,1.86-34.9c.82-6.68-1.94-20-4.61-26.15s-8.92-11.33-15.6-10.49c-4.73.6-8.71,4.09-11.07,8.23s-3.35,8.92-4.18,13.62a258,258,0,0,0-3.75,48.66C895,326.18,908.85,327.39,920.43,323.29Z" transform="translate(-874.71 -32.48)"/><path class="cls-13" d="M918.56,366.93c1.75-14.32,1.74-31.31,1.87-43.64-11.58,4.1-25.42,2.89-37.35-1a314,314,0,0,0,7.3,62.09,9.26,9.26,0,0,0,6.07,6.82,256.59,256.59,0,0,0,75.88,13.14c1.79-2.69,2.51-5.38,4.3-8.07C954.27,386.42,940.92,376.75,918.56,366.93Z" transform="translate(-874.71 -32.48)"/><path class="cls-11" d="M921.81,292.47q-1,15.21-1.93,30.42c0,.64,1,.76,1,.12q1-15.21,1.93-30.43C922.84,291.94,921.85,291.83,921.81,292.47Z" transform="translate(-874.71 -32.48)"/><path class="cls-11" d="M920,322.54a57.08,57.08,0,0,1-26.67,1.61,56.2,56.2,0,0,1-7.44-1.86c-.64-.21-1,.77-.38,1a57.58,57.58,0,0,0,34.92.23C921.06,323.3,920.63,322.35,920,322.54Z" transform="translate(-874.71 -32.48)"/><path class="cls-13" d="M965,394.05a121.66,121.66,0,0,1,24.39-3.94c2.28-.13,4.83-.11,6.5,1.4,1.84,1.67,1.86,4.43,1.75,6.85-.16,3.37-.5,7.13-3.14,9.32-2.23,1.87-5.48,2-8.44,1.8a47.7,47.7,0,0,1-22.43-7.57Z" transform="translate(-874.71 -32.48)"/><path class="cls-13" d="M993.59,390.28l10.2,1.49c1.08,2.57,2.34,5.08,3.42,7.66-.5,2.17-.91,4.87-1.4,7a5.36,5.36,0,0,1-2-6.48c-.79-1-1.44-2.65-2.23-3.66-2.71-.39-5.65-1.26-8.36-1.65Z" transform="translate(-874.71 -32.48)"/><path class="cls-13" d="M990.77,395.45,1001,397c1.08,2.57,2.34,5.08,3.42,7.65-.5,2.18-.91,4.87-1.4,7a5.36,5.36,0,0,1-2-6.48c-.79-1-1.44-2.65-2.23-3.67-2.71-.38-5.65-1.26-8.35-1.64Z" transform="translate(-874.71 -32.48)"/><path class="cls-13" d="M987.36,398.06l10.21,1.5c1.07,2.57,2.34,5.08,3.41,7.65-.49,2.18-.91,4.87-1.4,7.05a5.37,5.37,0,0,1-2-6.48c-.79-1-1.44-2.65-2.23-3.67-2.7-.38-5.65-1.26-8.35-1.64Z" transform="translate(-874.71 -32.48)"/><path class="cls-13" d="M984,401l10.21,1.49c1.07,2.57,2.34,5.09,3.41,7.66-.49,2.18-.91,4.87-1.4,7.05a5.39,5.39,0,0,1-2-6.49c-.79-1-1.44-2.65-2.23-3.66-2.7-.39-5.65-1.26-8.35-1.64Z" transform="translate(-874.71 -32.48)"/><path class="cls-9" d="M11.91,348H29.49a24.15,24.15,0,0,1,24.15,24.15v61.19a0,0,0,0,1,0,0H7.46a0,0,0,0,1,0,0V352.47A4.45,4.45,0,0,1,11.91,348Z"/><g class="cls-19"><path class="cls-15" d="M1070.37,155.63c-5.3-1.5-10.13-4.74-12.8-9.26a14.53,14.53,0,0,1-.2-14.82,13.79,13.79,0,0,1,14.07-6.09c-3.06-5.12-1.16-13.84,1.87-19s8.44-8.85,14.39-10.77a34.17,34.17,0,0,1,28.74,3.88,27.71,27.71,0,0,1,32.22-2.18c10.2,6.23,15,19.14,11.25,30,5.78-.87,12.08,2,14.93,6.74s3.07,10.57,1.91,15.92-3.58,10.37-5.82,15.41a244.25,244.25,0,0,0-14.71,43.92c-10.83,2.1-18.39,7-28,12.12s-21-6-26.45-15.06-7.4-19.61-11.67-29.22S1081.06,158.64,1070.37,155.63Z" transform="translate(-874.71 -32.48)"/><path class="cls-16" d="M1065.5,141.52c1.36-3.14,3.57-5.81,7-6.73,2.35-.64,4.8-.49,7.21-.68-.2-4.17-.32-8.43.75-12.48A20.26,20.26,0,0,1,1089,110.1a25,25,0,0,1,14.82-4.48,17.45,17.45,0,0,1,6.39,1.75c1.56.69,3.22,1.67,5,1.4,3.62-.55,6.81-2.88,9.91-4.68,3.55-2.07,7.33-3.87,11.51-4.08a21,21,0,0,1,12,3.11,15.51,15.51,0,0,1,6.07,7.81c2.14,5.83,1.44,12.4.57,18.51a23.5,23.5,0,0,1,12,4.46,32.17,32.17,0,0,1,10,13.12,20.56,20.56,0,0,0-2.4-12.92c-2.85-4.76-9.15-7.61-14.93-6.74,3.8-10.81-1.05-23.72-11.25-29.95a27.71,27.71,0,0,0-32.22,2.18,34.17,34.17,0,0,0-28.74-3.88c-6,1.92-11.35,5.64-14.39,10.77s-4.93,13.86-1.87,19a13.79,13.79,0,0,0-14.07,6.09,14.53,14.53,0,0,0,.2,14.82,20.7,20.7,0,0,0,10.1,8.3C1064.81,150.94,1063.42,146.36,1065.5,141.52Z" transform="translate(-874.71 -32.48)"/><path class="cls-20" d="M1082.08,147.66c-3.78-2.83-7.23-6.78-7.77-11.32a90.75,90.75,0,0,0,.31,36.74c.9,4.16-2.3,7-4.43,10.72s-4.09,8-2.92,12.08a11.62,11.62,0,0,0,4.88,6.18,34.54,34.54,0,0,0,7.26,3.38c2.33,4.27,2.88,9.15,3.82,13.93s3,9.86,7.45,11.92a12.61,12.61,0,0,0,9.13.17l.29-.1C1089.1,204.78,1081.32,176.08,1082.08,147.66Z" transform="translate(-874.71 -32.48)"/><path class="cls-21" d="M1118.71,182c.87-3.37.44-7.28-2-9.8s-8.38-4.38-10.6-1.7c-2.51-6.87-4.86-12.63-7.37-19.49a18.2,18.2,0,0,1-15-2.15c-.55-.36-1.1-.74-1.65-1.15-.76,28.42,7,57.12,18,83.7a39.09,39.09,0,0,0,8-4.22c10.65-6.75,10-24.9,3.9-35.95A15.64,15.64,0,0,0,1118.71,182Z" transform="translate(-874.71 -32.48)"/><path class="cls-21" d="M1106.21,214.56c4.49,7.65,11,34,11,34,9.52-.94,42.08-3.88,51.6-4.82-4-12.53-7.15-21.89-11.12-34.43C1146.67,209.35,1115.15,209.67,1106.21,214.56Z" transform="translate(-874.71 -32.48)"/><path class="cls-20" d="M998.25,321.58l2.51,33.95c.39,5.27,7.34,8.19,12.4,9.68a21.78,21.78,0,0,0,10.9.45l-22.47-64.14C999.72,308.2,997.76,314.88,998.25,321.58Z" transform="translate(-874.71 -32.48)"/><path class="cls-22" d="M1018,324c-2.09-13.65-5.27-26.92-13.42-38.07-.14,5.2-1.52,10.38-3,15.55l22.47,64.14a15.83,15.83,0,0,0,4.53-1.8C1021.86,351.8,1020.07,337.7,1018,324Z" transform="translate(-874.71 -32.48)"/><polygon class="cls-23" points="253.13 356.01 160.43 356.01 114.71 223.55 207.41 223.55 253.13 356.01"/><path class="cls-20" d="M1004.71,339.31,1024,297.77c2.64,1.92,4.6,4.55,4.63,7.25a23.41,23.41,0,0,1-1.81,8q-3.09,8.8-6.19,17.59c4.45,6.3,6.77,12.92,5.9,19.94a15.29,15.29,0,0,1-3.91,9,15,15,0,0,1-11.19,4.35c-6.64-.3-8.2-7.16-8.54-11.92S1002.61,343.82,1004.71,339.31Z" transform="translate(-874.71 -32.48)"/><path class="cls-21" d="M1060.92,275.62l-5.49,15.9c1.47,2.78,2.61,5.9,4.08,8.68a7.71,7.71,0,0,0,1.54,2.24,2.6,2.6,0,0,0,2.51.67,2.72,2.72,0,0,0,1.55-2.84A9.51,9.51,0,0,0,1064,297a6,6,0,0,1-.78-3.35c.95-6.19,6.58-10.74,10-16,1.33-2,2.71-4.54,1.8-6.81-1-2.54-4.52-3.25-7-2.17S1061.81,273,1060.92,275.62Z" transform="translate(-874.71 -32.48)"/><path class="cls-21" d="M1067.26,273.94l-5.49,15.9c1.47,2.78,2.61,5.89,4.08,8.67a7.74,7.74,0,0,0,1.53,2.24,2.65,2.65,0,0,0,2.52.68,2.72,2.72,0,0,0,1.55-2.84,9.58,9.58,0,0,0-1.17-3.27,5.92,5.92,0,0,1-.77-3.34c1-6.19,6.58-10.75,10-16,1.33-2.06,2.71-4.54,1.8-6.81-1-2.54-4.52-3.25-7-2.17S1068.15,271.36,1067.26,273.94Z" transform="translate(-874.71 -32.48)"/><path class="cls-21" d="M1075.76,275.89l-5.48,15.9c1.46,2.78,2.61,5.89,4.07,8.68a7.71,7.71,0,0,0,1.54,2.24,2.63,2.63,0,0,0,2.51.67,2.7,2.7,0,0,0,1.55-2.84,9.51,9.51,0,0,0-1.16-3.26,5.88,5.88,0,0,1-.77-3.35c1-6.19,6.57-10.74,10-16,1.32-2.05,2.7-4.54,1.79-6.81-1-2.54-4.51-3.25-7-2.17S1076.66,273.31,1075.76,275.89Z" transform="translate(-874.71 -32.48)"/><path class="cls-20" d="M1094,267.93l-18-5.83a9.07,9.07,0,0,0-5-.63c-1.72.43-3,1.82-4.2,3.14l-16.29,18.15c-1.09,1.21-2.25,2.73-1.82,4.29.68,2.42,4.17,2.32,6.51,1.43a33.56,33.56,0,0,0,15.45-12.1c5.85,5.65,14.2,9,22.06,11.08,2,.55,4.55.85,6-.67,1.08-1.1,1.22-2.81,1.15-4.36C1099.74,277.31,1097.23,271.91,1094,267.93Z" transform="translate(-874.71 -32.48)"/><path class="cls-15" d="M1079.76,245.55l-32.29,49.88-9.23,14.25c-1,1.62,1.37,3.4,2.42,1.77L1073,261.57q4.62-7.12,9.23-14.25C1083.23,245.71,1080.81,243.93,1079.76,245.55Z" transform="translate(-874.71 -32.48)"/><path class="cls-20" d="M1081.06,305.4c-10.17-6.38-38.12-6.72-33.8-11.4,0,0,0,0,0-.06h0a15.86,15.86,0,0,1,13.69-5,72.63,72.63,0,0,1,24.87,8.1c1.2.65,2.17,1,3.32,1.73C1086.78,300.77,1083.39,303.38,1081.06,305.4Z" transform="translate(-874.71 -32.48)"/><polygon class="cls-15" points="163.53 277.2 160.36 285.05 165.96 278.97 163.53 277.2"/><path class="cls-20" d="M1059.24,483.07a737.48,737.48,0,0,1-58.31-127c12.11-.89,24.64,4.11,32.29,13.53,21.93,27,43.31,53.23,65.25,80.24C1080.77,454.4,1065.65,466,1059.24,483.07Z" transform="translate(-874.71 -32.48)"/><path class="cls-24" d="M1129.3,239.56c-8.77-2.85-18.73-.05-26,5.67s-12.09,14-15.44,22.59c-7.82,20.08-8.2,42.16-8.48,63.71-.15.19-.29.38-.44.55a7,7,0,0,0,.45,9.58l.14.13c-2.07,23-4.43,45.28-6.49,68.23-11.58-13.36-22.19-27.86-33.77-41.22-13.45-1.06-27.35,6.52-33.08,18.73,20.18,37.19,38.52,76.56,58.71,113.75,3.52,6.49,12.49,4.5,19.87,4.4a76,76,0,0,0,43.33-14.4c4.86-65.75,10.43-134.46,15.29-200.2.72-9.66,1.42-19.47-.61-28.93S1138.51,242.56,1129.3,239.56Z" transform="translate(-874.71 -32.48)"/><path class="cls-8" d="M1042.86,381.29a28.7,28.7,0,0,0-24.1,13.2c-.68,1.08.93,2.27,1.62,1.18a26.62,26.62,0,0,1,22.25-12.39C1043.91,383.28,1044.15,381.29,1042.86,381.29Z" transform="translate(-874.71 -32.48)"/><path class="cls-8" d="M1070.81,411.1a51,51,0,0,0-15.18,43,1,1,0,0,0,2-.31,48.91,48.91,0,0,1,14.46-41.17C1073,411.77,1071.74,410.21,1070.81,411.1Z" transform="translate(-874.71 -32.48)"/><path class="cls-8" d="M1073.17,415.14a44,44,0,0,0-6.62,27.69c.12,1.28,2.1,1,2-.31a41.82,41.82,0,0,1,6.27-26.2C1075.47,415.24,1073.86,414.05,1073.17,415.14Z" transform="translate(-874.71 -32.48)"/><path class="cls-8" d="M1104.41,342.68a24.36,24.36,0,0,1-22.45-1.95c-1.08-.7-2.27.91-1.18,1.61a26.42,26.42,0,0,0,24.45,2.16C1106.42,344,1105.6,342.18,1104.41,342.68Z" transform="translate(-874.71 -32.48)"/></g></svg>