<svg id="OBJECTS" xmlns="http://www.w3.org/2000/svg" xmlns:xlink="http://www.w3.org/1999/xlink" viewBox="0 0 308.09 455.95"><defs><style>.cls-1{fill:none;}.cls-2{fill:#f1faee;}.cls-12,.cls-14,.cls-3,.cls-5{fill:#457b9d;}.cls-3{opacity:0.09;}.cls-4{fill:#a8dadc;}.cls-5{font-size:27.48px;font-family:PlayfairDisplay-Regular, PlayfairDisplay Regular;letter-spacing:0.1em;}.cls-6{letter-spacing:0.1em;}.cls-7{letter-spacing:0.09em;}.cls-8{clip-path:url(#clip-path);}.cls-9{fill:#50b2b5;}.cls-10{fill:#459a9d;}.cls-11{fill:#1d3557;}.cls-12{opacity:0.29;}.cls-13{fill:#ffc9b9;}.cls-15{fill:#ffab90;}.cls-16{fill:#94c0c2;}.cls-17{fill:#2a4e80;}.cls-18{fill:#213a4a;}.cls-19{fill:#345c75;}.cls-20{fill:#ffd797;}</style><clipPath id="clip-path" transform="translate(-15.21 -32.48)"><rect class="cls-1" x="33.06" y="32.48" width="240.38" height="433.36"/></clipPath></defs><rect class="cls-2" x="17.85" width="240.38" height="433.36"/><path class="cls-3" d="M33.06,384.45v81.39H273.44V253.14a232.88,232.88,0,0,0-82.08,19.92C131.34,299.12,76.93,336.42,33.06,384.45Z" transform="translate(-15.21 -32.48)"/><path class="cls-3" d="M40.24,32.48c41.61,74.07,130.14,119,215.12,108.58a176.36,176.36,0,0,0,18.08-3.27V32.48Z" transform="translate(-15.21 -32.48)"/><path class="cls-4" d="M265.52,136.68a1.25,1.25,0,1,1,1.25-1.25A1.25,1.25,0,0,1,265.52,136.68Z" transform="translate(-15.21 -32.48)"/><path class="cls-4" d="M265.52,153a1.25,1.25,0,1,1,1.25-1.25A1.25,1.25,0,0,1,265.52,153Z" transform="translate(-15.21 -32.48)"/><path class="cls-4" d="M265.52,169.41a1.26,1.26,0,1,1,1.25-1.26A1.26,1.26,0,0,1,265.52,169.41Z" transform="translate(-15.21 -32.48)"/><path class="cls-4" d="M265.52,185.77a1.26,1.26,0,1,1,1.25-1.26A1.26,1.26,0,0,1,265.52,185.77Z" transform="translate(-15.21 -32.48)"/><path class="cls-4" d="M249.3,136.68a1.25,1.25,0,1,1,1.25-1.25A1.25,1.25,0,0,1,249.3,136.68Z" transform="translate(-15.21 -32.48)"/><path class="cls-4" d="M249.3,153a1.25,1.25,0,1,1,1.25-1.25A1.25,1.25,0,0,1,249.3,153Z" transform="translate(-15.21 -32.48)"/><circle class="cls-4" cx="249.3" cy="168.15" r="1.25" transform="translate(-16.76 -30.17) rotate(-0.53)"/><path class="cls-4" d="M249.3,185.77a1.26,1.26,0,1,1,1.25-1.26A1.26,1.26,0,0,1,249.3,185.77Z" transform="translate(-15.21 -32.48)"/><path class="cls-4" d="M233.08,136.68a1.25,1.25,0,1,1,1.26-1.25A1.25,1.25,0,0,1,233.08,136.68Z" transform="translate(-15.21 -32.48)"/><path class="cls-4" d="M233.08,153a1.25,1.25,0,1,1,1.26-1.25A1.25,1.25,0,0,1,233.08,153Z" transform="translate(-15.21 -32.48)"/><path class="cls-4" d="M233.08,169.41a1.26,1.26,0,1,1,1.26-1.26A1.26,1.26,0,0,1,233.08,169.41Z" transform="translate(-15.21 -32.48)"/><path class="cls-4" d="M233.08,185.77a1.26,1.26,0,1,1,1.26-1.26A1.26,1.26,0,0,1,233.08,185.77Z" transform="translate(-15.21 -32.48)"/><path class="cls-4" d="M216.86,136.68a1.25,1.25,0,1,1,1.26-1.25A1.25,1.25,0,0,1,216.86,136.68Z" transform="translate(-15.21 -32.48)"/><path class="cls-4" d="M216.86,153a1.25,1.25,0,1,1,1.26-1.25A1.25,1.25,0,0,1,216.86,153Z" transform="translate(-15.21 -32.48)"/><path class="cls-4" d="M216.86,169.41a1.26,1.26,0,1,1,1.26-1.26A1.26,1.26,0,0,1,216.86,169.41Z" transform="translate(-15.21 -32.48)"/><path class="cls-4" d="M216.86,185.77a1.26,1.26,0,1,1,1.26-1.26A1.26,1.26,0,0,1,216.86,185.77Z" transform="translate(-15.21 -32.48)"/><circle class="cls-4" cx="43.2" cy="291.49" r="0.96"/><circle class="cls-4" cx="30.64" cy="291.49" r="0.96"/><circle class="cls-4" cx="43.2" cy="279.04" r="0.96"/><circle class="cls-4" cx="30.64" cy="279.04" r="0.96"/><circle class="cls-4" cx="43.2" cy="266.58" r="0.96"/><circle class="cls-4" cx="30.64" cy="266.58" r="0.96"/><circle class="cls-4" cx="43.2" cy="254.12" r="0.96"/><circle class="cls-4" cx="30.64" cy="254.12" r="0.96"/><path class="cls-4" d="M57.45,274.15a1,1,0,1,1,1.93,0,1,1,0,0,1-1.93,0Z" transform="translate(-15.21 -32.48)"/><path class="cls-4" d="M44.89,274.15a1,1,0,1,1,1,1A1,1,0,0,1,44.89,274.15Z" transform="translate(-15.21 -32.48)"/><circle class="cls-4" cx="43.2" cy="229.2" r="0.96"/><circle class="cls-4" cx="30.64" cy="229.2" r="0.96"/><path class="cls-4" d="M57.45,249.23a1,1,0,1,1,1,1A1,1,0,0,1,57.45,249.23Z" transform="translate(-15.21 -32.48)"/><path class="cls-4" d="M44.89,249.23a1,1,0,1,1,1,1A1,1,0,0,1,44.89,249.23Z" transform="translate(-15.21 -32.48)"/><text x="-15.21" y="-32.48"/><text class="cls-5" transform="translate(65.59 31.95)">D<tspan class="cls-6" x="21.16" y="0">ep</tspan><tspan class="cls-7" x="56.06" y="0">r</tspan><tspan class="cls-6" x="67.52" y="0">esión</tspan></text><g class="cls-8"><path class="cls-9" d="M270.8,233.3c-11.56-13.44-27-24.68-44.67-26.34s-37.07,8.78-41.23,26c3.17-4.2,8.89-5.9,14.11-5.28s10,3.24,14.25,6.34c13,9.44,21.91,23.45,28.43,38.1s10.88,30.14,16.52,45.14c2.5,6.64,5.36,13.36,10.3,18.45,6.12,6.29,17.2,10,24.4,3.26,5.08-4.77,7.24-10.65,7.25-17.43,0-9.85-.08-19.55-1.78-29.3a125.17,125.17,0,0,0-9.07-29.66A120.43,120.43,0,0,0,270.8,233.3Z" transform="translate(-15.21 -32.48)"/><path class="cls-10" d="M227.66,239.65c19.46,26.27,30.17,54.58,43.5,85.35,5.06,10.43,13.38,13.85,22.33,13.41-.19.19-.38.39-.58.57-7.2,6.76-18.28,3-24.4-3.26-4.94-5.09-7.8-11.81-10.3-18.45-5.64-15-10-30.5-16.52-45.14s-15.48-28.66-28.43-38.1c-4.25-3.1-9-5.72-14.25-6.34s-10.94,1.08-14.11,5.28a28.86,28.86,0,0,1,1.67-4.9C200,218.76,218.53,226.3,227.66,239.65Z" transform="translate(-15.21 -32.48)"/><path class="cls-11" d="M223.06,223.27c9-.17,17.56,3.24,24.71,8.5,8.07,5.92,14.08,14.14,18.77,22.9,5.22,9.75,9.18,20.2,12.92,30.6q5.88,16.39,10.28,33.28c2.91,11.19,5.32,22.52,7.22,33.92.24,1.42.47,2.83.69,4.25.09.64-.9.71-1,.08q-2.64-17-6.79-33.74-4.11-16.56-9.68-32.72a281,281,0,0,0-12.26-30.76c-4.38-9.06-9.89-17.83-17.56-24.47-6.67-5.77-15-10-23.83-10.74a32,32,0,0,0-3.39-.11C222.49,224.27,222.42,223.28,223.06,223.27Z" transform="translate(-15.21 -32.48)"/><path class="cls-11" d="M230.86,231.48A36.64,36.64,0,0,1,248,232.71l-8.64-14c-.34-.54.49-1.11.82-.57l9.37,15.14a.5.5,0,0,1-.63.73,35.78,35.78,0,0,0-18-1.57C230.3,232.59,230.23,231.59,230.86,231.48Z" transform="translate(-15.21 -32.48)"/><path class="cls-11" d="M254.18,259A106.58,106.58,0,0,1,273,274.92c1.24,1.32,2.44,2.69,3.61,4.08a102.64,102.64,0,0,0-3.79-23.23q-1-3.42-2.19-6.77a.5.5,0,0,1,.94-.34,104.27,104.27,0,0,1,5.62,24.52q.38,3.6.49,7.22a.5.5,0,0,1-.91.32,106,106,0,0,0-17.59-16.94c-1.84-1.4-3.73-2.75-5.66-4C253,259.4,253.65,258.64,254.18,259Z" transform="translate(-15.21 -32.48)"/><path class="cls-11" d="M270.51,299.8a70.75,70.75,0,0,1,16.21,16.05c1,1.39,1.94,2.82,2.84,4.27a159.62,159.62,0,0,0,1-28,.5.5,0,0,1,1-.07,159.55,159.55,0,0,1-1.14,29.63.51.51,0,0,1-.9.19,69.63,69.63,0,0,0-14.56-17.38c-1.62-1.39-3.31-2.7-5.05-3.94C269.33,300.18,270,299.43,270.51,299.8Z" transform="translate(-15.21 -32.48)"/><path class="cls-10" d="M231.38,303.5c-14.75-2.77-34.21,1.14-43.53,15.6.2-12.2,9.55-23,21.11-27.67a33.77,33.77,0,0,1,10.46.71c2,.46,2.8-2.6.81-3.06l-.58-.12c9.28-.81,18.68,1.4,27.37,5.28a39.51,39.51,0,0,1,7.47,9.08,1.58,1.58,0,0,0,2.73-1.59,36.84,36.84,0,0,0-2.27-3.42c.84.49,1.67,1,2.49,1.51a99.88,99.88,0,0,1,15.78,12.31c2.91,5.19,5,11,6.92,16.43.69,1.91,3.75,1.1,3.06-.81-1-2.81-2-5.7-3.19-8.54a105.67,105.67,0,0,1,14.46,21.39c3.81,7.46,6.31,15.28,8.76,23.25a19.28,19.28,0,0,1-1.51,15.91l-.12.19C284.39,348.79,267.07,312.35,231.38,303.5Z" transform="translate(-15.21 -32.48)"/><path class="cls-9" d="M231.38,303.5c35.69,8.85,53,45.29,70.22,76.45-4.2,7.07-14,6.79-20.43,3.26-4.8-2.62-8.53-6.76-11.94-11.07a73.44,73.44,0,0,1,11.09,3.06c1.93.69,2.71-2.38.81-3.06a70.8,70.8,0,0,0-14.68-3.62c-3.63-4.78-7.12-9.68-10.67-14.52,2.41.54,4.78,1.2,7.09,1.93,1.95.62,2.74-2.45.8-3.06A79.19,79.19,0,0,0,253,350.23c-3-4-6.1-8-9.4-11.74a100.49,100.49,0,0,0-15.11-14.27,61.78,61.78,0,0,1,10.36-.11c2,.15,2-3,0-3.16a62.33,62.33,0,0,0-14.08.65,60.3,60.3,0,0,0-13.68-6.82l-.74-.24,1.7-.57a1.58,1.58,0,0,0-.82-3.06c-2.09.69-4.21,1.43-6.27,2.3a21,21,0,0,0-7,0c-4.38.8-8.58,3.61-10.09,7.79,0-.64,0-1.27,0-1.9C197.17,304.64,216.63,300.73,231.38,303.5Z" transform="translate(-15.21 -32.48)"/><path class="cls-11" d="M216.33,303.62c7.2-2.37,15-1.76,22.11.71,8,2.77,14.91,7.92,20.89,13.83,6.66,6.58,12.48,14,18.09,21.52q8.86,11.79,16.63,24.35t14.32,25.63c.54,1.09,1.08,2.17,1.61,3.27.24.48-.55.79-.79.3q-6.39-13.1-13.92-25.59t-16-24a237.55,237.55,0,0,0-17.59-21.81c-5.81-6.24-12.45-12-20.32-15.41-6.84-3-14.58-4.35-22-2.73a27.23,27.23,0,0,0-2.78.76C216.12,304.58,215.81,303.79,216.33,303.62Z" transform="translate(-15.21 -32.48)"/><path class="cls-11" d="M224.68,308.32A31,31,0,0,1,238.86,305l-10.47-9.13c-.41-.36.11-1,.52-.67l11.36,9.9a.43.43,0,0,1-.33.75A30.27,30.27,0,0,0,225,309.11C224.51,309.35,224.2,308.56,224.68,308.32Z" transform="translate(-15.21 -32.48)"/><path class="cls-11" d="M250.42,324.75a90,90,0,0,1,19.2,8.17c1.34.76,2.65,1.57,3.94,2.4a86.8,86.8,0,0,0-8.87-17.84c-1.09-1.68-2.25-3.32-3.46-4.93a.42.42,0,0,1,.68-.5,88.12,88.12,0,0,1,10.67,18.42q1.2,2.82,2.2,5.71a.43.43,0,0,1-.66.49,89.79,89.79,0,0,0-18.46-9.31q-2.76-1-5.58-1.84C249.56,325.37,249.9,324.59,250.42,324.75Z" transform="translate(-15.21 -32.48)"/><path class="cls-11" d="M273.82,353.67a59.58,59.58,0,0,1,17.11,8.93c1.16.87,2.27,1.8,3.37,2.75a135.06,135.06,0,0,0-6.22-22.88.42.42,0,0,1,.79-.31,136.42,136.42,0,0,1,6.48,24.25.43.43,0,0,1-.69.38,58.91,58.91,0,0,0-16.11-10.42q-2.49-1.08-5.07-1.93C273,354.27,273.3,353.5,273.82,353.67Z" transform="translate(-15.21 -32.48)"/><path class="cls-10" d="M277.1,202c-12.79-7.86-32.35-11.16-46.22-1,4.54-11.32,17.13-18.09,29.59-18.3A33.89,33.89,0,0,1,270,187.1c1.69,1.14,3.54-1.43,1.85-2.57l-.5-.32c9,2.56,16.94,8,23.68,14.71a39.29,39.29,0,0,1,3.73,11.15,1.59,1.59,0,0,0,3.13-.52c-.23-1.34-.54-2.68-.9-4,.61.76,1.2,1.52,1.78,2.3A100.45,100.45,0,0,1,313.11,225c.87,5.89.71,12,.6,17.82,0,2,3.11,2.37,3.15.33.06-3,.12-6,.06-9.11a105.52,105.52,0,0,1,5.88,25.15c.89,8.32.44,16.52-.12,24.84a19.34,19.34,0,0,1-7.09,14.32l-.18.14C310.46,263.21,307.29,223,277.1,202Z" transform="translate(-15.21 -32.48)"/><path class="cls-9" d="M277.1,202c30.19,21,33.36,61.22,38.31,96.48-6.44,5.1-15.47,1.35-20.25-4.25-3.55-4.16-5.55-9.37-7.2-14.61a74.43,74.43,0,0,1,9.27,6.82c1.55,1.33,3.38-1.25,1.84-2.57a70.44,70.44,0,0,0-12.42-8.62c-1.68-5.76-3.19-11.58-4.77-17.37,2.05,1.36,4,2.83,5.92,4.33,1.6,1.27,3.44-1.31,1.85-2.57a80.68,80.68,0,0,0-9-6.28c-1.38-4.83-2.86-9.62-4.59-14.32a100.86,100.86,0,0,0-9-18.72,60.23,60.23,0,0,1,9.71,3.6c1.85.86,3-2.1,1.14-3a62.74,62.74,0,0,0-13.39-4.42,61.09,61.09,0,0,0-10.35-11.26l-.6-.48,1.79.08a1.62,1.62,0,0,0,1.74-1.41,1.6,1.6,0,0,0-1.41-1.74c-2.2-.11-4.45-.18-6.68-.09a20.78,20.78,0,0,0-6.52-2.5c-4.38-.81-9.3.31-12.21,3.68.19-.61.41-1.21.65-1.8C244.75,190.83,264.31,194.13,277.1,202Z" transform="translate(-15.21 -32.48)"/><path class="cls-11" d="M263,196.73c7.58.35,14.65,3.71,20.4,8.55,6.49,5.45,11.11,12.72,14.58,20.37,3.87,8.53,6.64,17.58,9.22,26.57q4.07,14.18,6.84,28.68T318.26,310c.12,1.21.24,2.42.34,3.63,0,.54-.8.54-.84,0q-1.29-14.5-3.87-28.87t-6.36-28.17a237.47,237.47,0,0,0-8.65-26.66c-3.2-7.9-7.37-15.6-13.48-21.64-5.32-5.24-12.07-9.27-19.53-10.39a27.41,27.41,0,0,0-2.86-.28C262.46,197.55,262.45,196.7,263,196.73Z" transform="translate(-15.21 -32.48)"/><path class="cls-11" d="M269.13,204.1a31,31,0,0,1,14.42,2Q280.28,200,277,193.82c-.26-.48.47-.92.72-.44l7.07,13.3a.43.43,0,0,1-.57.59,30.33,30.33,0,0,0-15.11-2.33C268.6,205,268.59,204.15,269.13,204.1Z" transform="translate(-15.21 -32.48)"/><path class="cls-11" d="M287.3,228.63a90,90,0,0,1,15,14.49c1,1.19,1.91,2.41,2.82,3.64a86.26,86.26,0,0,0-1.92-19.82c-.42-2-.91-3.91-1.47-5.84a.42.42,0,0,1,.81-.23,87.45,87.45,0,0,1,3.39,21c.08,2,.08,4.09,0,6.13a.43.43,0,0,1-.79.22A89.33,89.33,0,0,0,291.27,233q-2.22-1.94-4.56-3.72C286.28,228.9,286.88,228.3,287.3,228.63Z" transform="translate(-15.21 -32.48)"/><path class="cls-11" d="M298.84,264a60.08,60.08,0,0,1,12.8,14.46c.77,1.23,1.48,2.49,2.16,3.77a134.46,134.46,0,0,0,2.36-23.59.42.42,0,0,1,.84,0,135,135,0,0,1-2.6,25,.43.43,0,0,1-.77.11,59.3,59.3,0,0,0-11.33-15.48c-1.3-1.26-2.65-2.47-4.06-3.61C297.82,264.25,298.42,263.65,298.84,264Z" transform="translate(-15.21 -32.48)"/><path class="cls-12" d="M72.83,356.33C74.64,365.8,85,371,94.48,372.83s19.73,2,27.68,7.49c6,4.09,9.73,10.59,14.81,15.72,10.22,10.34,25.35,14.59,39.88,14.57s28.76-3.86,42.78-7.68c8.38-2.28,18.39-6.36,19.28-15,.74-7.16-5.89-13.27-12.86-15.05s-14.3-.52-21.49-.25-15.09-.78-20-6c-5.79-6.08-5.62-15.59-9.12-23.21-7.84-17.1-29.16-19.75-45.57-17.09-7.16,1.16-14.28,1.74-21.48,2.49a73.67,73.67,0,0,0-20.16,5.46C79.56,337.81,70.87,346.09,72.83,356.33Z" transform="translate(-15.21 -32.48)"/><path class="cls-13" d="M219,371.77a7,7,0,0,1-.73-.61l-1.54-11.69-13.06,3.59,2.39,7.75C209.93,371.79,215.06,373.13,219,371.77Z" transform="translate(-15.21 -32.48)"/><path class="cls-11" d="M210.23,389.42q12.45,5,25.33,8.78a11.11,11.11,0,0,0,3.82.64,3.39,3.39,0,0,0,2.09-6.17,11.24,11.24,0,0,0-4.15-2.14,4.83,4.83,0,0,1-1.19-.42l-1.28-.45-2.6-.91L227.14,387l-10.25-3.6-5.15-1.81c-1.55-.54-3.11-1.19-4.7-1.6a3.45,3.45,0,0,0-2.93.19c-1,.75-1,2.31-.79,3.39.55,2.9,3.47,4.45,5.94,5.5Z" transform="translate(-15.21 -32.48)"/><path class="cls-14" d="M219,371.77c-3.91,1.36-9,0-12.94-1l.11.35a45.4,45.4,0,0,0-1.88,7.1,7.43,7.43,0,0,0,4.83,8.3L238.23,397a3.42,3.42,0,0,0,4.44-4.12C241.66,389.18,220.32,372.82,219,371.77Z" transform="translate(-15.21 -32.48)"/><path class="cls-11" d="M225.7,376.34a8.2,8.2,0,0,0-6.83,3.52c-.4.6.51,1.27.91.67a7,7,0,0,1,5.79-3.07.56.56,0,0,0,.13-1.12Z" transform="translate(-15.21 -32.48)"/><path class="cls-11" d="M228.8,378.55a8.18,8.18,0,0,0-6.82,3.53c-.41.59.5,1.26.91.66a7,7,0,0,1,5.78-3.07.56.56,0,0,0,.13-1.12Z" transform="translate(-15.21 -32.48)"/><path class="cls-11" d="M231.9,380.77a8.14,8.14,0,0,0-6.82,3.52c-.41.6.5,1.26.91.66a7,7,0,0,1,5.78-3.06.59.59,0,0,0,.63-.5A.56.56,0,0,0,231.9,380.77Z" transform="translate(-15.21 -32.48)"/><path class="cls-13" d="M194.05,379.36a7,7,0,0,1-.73-.61l-1.54-11.69-13.06,3.59,2.39,7.75C185,379.38,190.14,380.72,194.05,379.36Z" transform="translate(-15.21 -32.48)"/><path class="cls-11" d="M185.31,397q12.45,5,25.33,8.78a11.11,11.11,0,0,0,3.82.64,3.39,3.39,0,0,0,2.09-6.17,11.24,11.24,0,0,0-4.15-2.14,4.45,4.45,0,0,1-1.19-.42l-1.28-.45-2.6-.91-5.1-1.79L192,391l-5.15-1.81c-1.55-.54-3.11-1.19-4.7-1.6a3.45,3.45,0,0,0-2.93.19c-1,.75-1,2.31-.79,3.39.55,2.9,3.47,4.45,5.95,5.5Z" transform="translate(-15.21 -32.48)"/><path class="cls-14" d="M194.05,379.36c-3.91,1.36-9,0-12.94-1l.11.35a45.4,45.4,0,0,0-1.88,7.1,7.44,7.44,0,0,0,4.83,8.3l29.14,10.47a3.41,3.41,0,0,0,4.44-4.12C216.74,396.77,195.4,380.41,194.05,379.36Z" transform="translate(-15.21 -32.48)"/><path class="cls-11" d="M200.78,383.93a8.18,8.18,0,0,0-6.82,3.52c-.41.6.5,1.27.91.67a7,7,0,0,1,5.78-3.07.57.57,0,0,0,.62-.49A.58.58,0,0,0,200.78,383.93Z" transform="translate(-15.21 -32.48)"/><path class="cls-11" d="M203.88,386.14a8.18,8.18,0,0,0-6.82,3.53c-.41.59.5,1.26.91.66a7,7,0,0,1,5.78-3.07.56.56,0,1,0,.13-1.12Z" transform="translate(-15.21 -32.48)"/><path class="cls-11" d="M207,388.36a8.14,8.14,0,0,0-6.82,3.52c-.41.6.5,1.26.91.66a7,7,0,0,1,5.78-3.06.59.59,0,0,0,.63-.5A.56.56,0,0,0,207,388.36Z" transform="translate(-15.21 -32.48)"/><path class="cls-15" d="M218.7,262a10.11,10.11,0,0,1,2.66,3.31,4,4,0,0,1-.32,4.05c-1.41,1.77-4.14,1.44-6.34.95l-7.54-1.7c-2.59-.58-5.3-1.22-7.31-3a8.23,8.23,0,0,1-2.75-6,7.85,7.85,0,0,1,2.83-6.2c1.5-1.16,3.28-.41,4.87.18a42.6,42.6,0,0,1,13.17,7.7Z" transform="translate(-15.21 -32.48)"/><path class="cls-16" d="M152.36,218.76l30.56,18c3.31,1.95,6.66,3.93,9.09,6.54s3.86,6,2.91,9.36c-1.15,4.14-6.48,7.93-11.83,7.77-3.92-.12-7-2.12-9.76-4-5.87-4-11.78-8.09-16.5-13s-8.22-10.63-8.72-17Z" transform="translate(-15.21 -32.48)"/><path class="cls-17" d="M176,155.79a19.23,19.23,0,0,0-11.45-5.87,13.14,13.14,0,0,0-11.68,4.63c-2.72,3.52-3.23,8.53-6.47,11.59-2.14,2-5.12,2.83-8,3.33s-5.88.79-8.55,2-5,3.61-5.23,6.54c-.21,3.27,2.3,6.61,1,9.63-1,2.46-4.06,3.35-5.83,5.35a7.71,7.71,0,0,0-1.64,6.22,12.87,12.87,0,0,0,2.81,5.94,19.19,19.19,0,0,0,30.61-.8c3.18-4.46,4.31-10,6.62-15a34.23,34.23,0,0,1,16.07-16.3c2.83-1.36,6.39-2.57,8.16-5.36.66-1,.26-1.82-.24-2.83a43.35,43.35,0,0,0-2.55-4.5A29.36,29.36,0,0,0,176,155.79Z" transform="translate(-15.21 -32.48)"/><path class="cls-11" d="M175.19,158.46A17.8,17.8,0,0,0,164.58,153a12.18,12.18,0,0,0-10.82,4.29c-2.52,3.27-3,7.91-6,10.74-2,1.87-4.75,2.63-7.43,3.1s-5.44.73-7.92,1.84-4.68,3.35-4.85,6.07c-.19,3,2.14,6.12.95,8.92-1,2.28-3.76,3.12-5.4,5a7.14,7.14,0,0,0-1.51,5.77,11.73,11.73,0,0,0,2.6,5.5,17.78,17.78,0,0,0,28.37-.75c3-4.13,4-9.29,6.14-13.89a31.75,31.75,0,0,1,14.89-15.11c2.63-1.26,5.93-2.38,7.57-5,.61-1,.24-1.68-.22-2.62a43.8,43.8,0,0,0-2.36-4.17A27.32,27.32,0,0,0,175.19,158.46Z" transform="translate(-15.21 -32.48)"/><path class="cls-4" d="M118.05,208.19C87.22,216.39,80,257.27,77.82,272.8s.39,32.28,9.93,44.72,27,19.36,41.66,13.94C134.64,329.54,139.47,326,142,321c3-5.92,2.31-12.9,2.19-19.52a107.32,107.32,0,0,1,4.15-31.57c2.93-10.2,18.78-26.62,12.14-42.85C155.27,214.44,137.07,203.14,118.05,208.19Z" transform="translate(-15.21 -32.48)"/><path class="cls-16" d="M158.87,248.77c-18.24,5.12-37.51-3.05-52.4-13,2.26,20.29,13.53,48.47-9,62a24.75,24.75,0,0,0,9-1.13c-5.45,10.91-17.36,12.12-26.06,7a48.75,48.75,0,0,0,7.34,13.87c9.54,12.45,27,19.36,41.66,13.94C134.64,329.54,139.47,326,142,321c3-5.92,2.31-12.9,2.19-19.52a107.32,107.32,0,0,1,4.15-31.57C149.91,264.39,155.33,257,158.87,248.77Z" transform="translate(-15.21 -32.48)"/><path class="cls-11" d="M195.89,196.94c.34-.64-.68-1.13-1-.49A85.28,85.28,0,0,1,183.67,213c-3.64,4.21-8.22,9.19-14.29,9a7.45,7.45,0,0,1-7-4.83.57.57,0,0,0-1.07.37,8.33,8.33,0,0,0,5.87,5.28,11.82,11.82,0,0,0,8.12-1.08,25.86,25.86,0,0,0,7.37-6,83.22,83.22,0,0,0,6.86-8.47A86.18,86.18,0,0,0,195.89,196.94Z" transform="translate(-15.21 -32.48)"/><path class="cls-17" d="M198.79,187.93c.12-8-3.37-15.88-10.54-20.49a21.76,21.76,0,0,0-25.85,2.07c-7.55,6.59-12.61,18.67-9.55,28.55,3.18,10.31,14.46,16.22,24.82,14.1,6.83-1.41,14.38-5.47,17.8-11.68A26.8,26.8,0,0,0,198.79,187.93Z" transform="translate(-15.21 -32.48)"/><path class="cls-11" d="M196.71,189.56a22,22,0,0,0-9.83-19.09,20.3,20.3,0,0,0-24.1,1.92c-7,6.15-11.75,17.4-8.9,26.62,3,9.6,13.49,15.12,23.14,13.13,6.36-1.3,13.41-5.09,16.59-10.88A25.06,25.06,0,0,0,196.71,189.56Z" transform="translate(-15.21 -32.48)"/><path class="cls-13" d="M157.45,192.12A201,201,0,0,1,138,211.71a6.25,6.25,0,0,0-2.27,4.41c0,4.11,1.76,7.59,4.77,9.43,1.52.94,4.05.09,5.74-1.88,3.88-4.52,7.72-8.66,12-13A28.7,28.7,0,0,0,157.45,192.12Z" transform="translate(-15.21 -32.48)"/><path class="cls-15" d="M158.29,210.65a28.7,28.7,0,0,0-.84-18.53c-1.58,1.83-3.21,3.64-4.86,5.41-3,7.69-4.94,16.5-3.6,23C152,217.2,155,214,158.29,210.65Z" transform="translate(-15.21 -32.48)"/><path class="cls-13" d="M187.84,206.61c-11,9.56-27.27,14.14-29.55,11.12-7.58-10-1.28-22.78-1.19-22.92a7,7,0,0,1-2.56-1.89,5.36,5.36,0,0,1-.43-3.85c.52-2,1.74-4.71,4-5.11,2.78-.48,5.85,2.46,4.7,5.38,8.24-.15,12-2.68,16.64-5.34,7.14,3.13,10.8,7,14.05,14.28C194.09,199.5,188.85,205.73,187.84,206.61Z" transform="translate(-15.21 -32.48)"/><path class="cls-11" d="M182.85,195a14.18,14.18,0,0,0-5.86-5c-.67-.31-1.07.77-.4,1.08a13.07,13.07,0,0,1,5.37,4.65.58.58,0,0,0,.81.08A.6.6,0,0,0,182.85,195Z" transform="translate(-15.21 -32.48)"/><path class="cls-11" d="M188.13,205.45a5.31,5.31,0,0,0-1-4.8.58.58,0,0,0-.81-.08.59.59,0,0,0-.08.82,4.8,4.8,0,0,1,.32.43l0,.07a.21.21,0,0,0,0,.06l.12.23a4.4,4.4,0,0,1,.21.5s0,.09.05.13v.06l0,.1,0,.14a4.54,4.54,0,0,1,.09.51,2.11,2.11,0,0,1,0,.26v.05a.33.33,0,0,1,0,.14,4.36,4.36,0,0,1,0,.51,2.33,2.33,0,0,1,0,.28.29.29,0,0,1,0,.09s0,.1,0,.1a.61.61,0,0,0,.34.75A.58.58,0,0,0,188.13,205.45Z" transform="translate(-15.21 -32.48)"/><path class="cls-15" d="M164.24,213.59,162,210.53a.58.58,0,0,0-.82-.08.59.59,0,0,0-.08.81l2.28,3.07a.57.57,0,0,0,.81.07A.59.59,0,0,0,164.24,213.59Z" transform="translate(-15.21 -32.48)"/><path class="cls-15" d="M177.72,206.26c.26-.7-.8-1.18-1.06-.47a7.68,7.68,0,0,1-2.42,3.8,2.78,2.78,0,0,1-3.54,0c-.55-.51-1.28.39-.73.9a3.89,3.89,0,0,0,4.62.26A8.18,8.18,0,0,0,177.72,206.26Z" transform="translate(-15.21 -32.48)"/><path class="cls-11" d="M175.37,200.65a.58.58,0,0,0-.48-.66,2.34,2.34,0,0,1-1.6-.76,2.12,2.12,0,0,1-.45-.78,2.28,2.28,0,0,1-.12-.84.6.6,0,0,0-.49-.67.59.59,0,0,0-.66.49,3.42,3.42,0,0,0,3.14,3.71A.6.6,0,0,0,175.37,200.65Z" transform="translate(-15.21 -32.48)"/><path class="cls-11" d="M181.89,210.06a.59.59,0,0,0-.64-.51c.08,0,0,0,0,0l-.13,0-.09,0h0l-.21-.08-.11,0,0,0a.91.91,0,0,1-.16-.11l-.09-.08-.05-.05,0,0-.06-.08-.07-.11,0,0a1.48,1.48,0,0,1-.13-.35v0s0-.08,0-.12a1.48,1.48,0,0,1,0-.21h0v0s0-.08,0-.12a1.18,1.18,0,0,1,0-.2h0a.36.36,0,0,0,0-.11,2.12,2.12,0,0,1,.11-.21.58.58,0,1,0-1.06-.47,2.54,2.54,0,0,0,2.27,3.75A.59.59,0,0,0,181.89,210.06Z" transform="translate(-15.21 -32.48)"/><path class="cls-11" d="M167.39,212.34a10.43,10.43,0,0,0-4-3.94.56.56,0,0,0-.41,1c-.07,0,.09.05.08.05l.13.08a2.61,2.61,0,0,1,.28.17c.17.11.34.22.5.34l.52.41.22.2.18.17a10.64,10.64,0,0,1,.84.94l.38.51a5.4,5.4,0,0,1,.3.49.59.59,0,0,0,.75.28A.56.56,0,0,0,167.39,212.34Z" transform="translate(-15.21 -32.48)"/><path class="cls-15" d="M159.07,185.74a.56.56,0,0,0-.66.91,2,2,0,0,1-.46,3.51.55.55,0,0,0-.28.74.57.57,0,0,0,.74.29,3.13,3.13,0,0,0,.66-5.45Z" transform="translate(-15.21 -32.48)"/><path class="cls-16" d="M145.34,227.26c-2.52,1.29-5.47.31-7.45-1.5-2.32-2.14-3.49-5.15-4.6-8-.27-.7-1.38-.36-1.11.34,1.27,3.29,2.64,6.78,5.5,9a7.71,7.71,0,0,0,8.27,1.15C146.61,227.91,146,226.92,145.34,227.26Z" transform="translate(-15.21 -32.48)"/><path class="cls-11" d="M180.84,193.94a22.05,22.05,0,0,1-14.46-4,3.36,3.36,0,0,1-1.75-2.46c0-1.18,1.09-2,2.1-2.62a25.25,25.25,0,0,1,14.4-3.27,24.94,24.94,0,0,1,6.34,1.32,26.45,26.45,0,0,1,3,1.27,16.45,16.45,0,0,1,2.78,1.63c1.48,1.16.35,2.68-.78,3.55a22,22,0,0,1-10.9,4.47Z" transform="translate(-15.21 -32.48)"/><path class="cls-18" d="M134.28,318c9.2-25.1,18.23-39,34.06-60.54,6.86-9.34,16.42-19.18,27.93-17.74,6.46.8,13.61,10.68,14.48,22.41,1.4,19.08,4.37,72.15,10.67,103.59-6.3,1.33-12.83,1.35-19.13,2.68-11.39-18.49-16.26-52.46-15.18-69.19-4.71,13.2-10.36,72.84-51.92,71.12-10.29-.43-18.87-10-23.11-19.35s-4.35-17.72,1.72-34.8Z" transform="translate(-15.21 -32.48)"/><path class="cls-15" d="M220.34,264.81a4.14,4.14,0,0,0-4.56-.28A84.84,84.84,0,0,0,204,272.67c-1.21,1-2.5,2.21-2.63,3.77s1.14,3.11,2.33,4.29c1.67,1.63,3.61,3.38,6,3.25,2-.11,3.72-1.56,5.12-3.06a33.2,33.2,0,0,0,6.92-11.43,4.14,4.14,0,0,0-1.38-4.68Z" transform="translate(-15.21 -32.48)"/><path class="cls-15" d="M202,274.72l-4.47,5.56c.67,1.81,1.21,3.68,1.87,5.49,1.28.87,2.75,2,4,2.91a3.71,3.71,0,0,0-2-4.24c-.08-.89-.51-2-.59-2.91,1.19-1.47,2.27-3.3,3.46-4.76Z" transform="translate(-15.21 -32.48)"/><path class="cls-15" d="M205.82,276l-4.47,5.56c.67,1.81,1.21,3.68,1.88,5.48,1.27.87,2.75,2,4,2.92a3.72,3.72,0,0,0-2-4.25c-.08-.89-.52-2-.6-2.9,1.19-1.47,2.27-3.3,3.46-4.77Z" transform="translate(-15.21 -32.48)"/><path class="cls-15" d="M208.78,275.74l-4.47,5.56c.66,1.81,1.21,3.68,1.87,5.48,1.28.87,2.75,2,4,2.92a3.73,3.73,0,0,0-2-4.25c-.08-.89-.52-2-.59-2.91,1.18-1.46,2.27-3.29,3.45-4.76Z" transform="translate(-15.21 -32.48)"/><path class="cls-15" d="M211.87,275.61l-4.47,5.56c.66,1.81,1.2,3.68,1.87,5.48,1.28.88,2.75,2.05,4,2.92a3.71,3.71,0,0,0-2-4.25c-.08-.88-.52-2-.6-2.9,1.19-1.47,2.27-3.3,3.46-4.76Z" transform="translate(-15.21 -32.48)"/><path class="cls-18" d="M103,322.48a33.52,33.52,0,0,1-12.39-.09c-.71-.14-.84,1-.13,1.12a34.27,34.27,0,0,0,12.69.08C103.86,323.46,103.69,322.35,103,322.48Z" transform="translate(-15.21 -32.48)"/><path class="cls-19" d="M108.23,319.34c9.2-25.1,18.23-39,34.05-60.53,6.87-9.35,16.43-19.19,27.94-17.75,6.46.81,13.61,10.68,14.47,22.41,1.41,19.08,4.39,74.4,10.7,105.84-6.3,1.33-12.83,1.35-19.14,2.68-11.39-18.49-16.27-54.71-15.19-71.44-4.71,13.2-10.36,72.85-51.92,71.12-10.29-.43-18.87-10-23.11-19.35s-4.35-17.72,1.72-34.8Z" transform="translate(-15.21 -32.48)"/><path class="cls-18" d="M125.17,282.85a118.14,118.14,0,0,0-16.51,35.69q-1.44,5.32-2.39,10.78c-.13.71,1,.84,1.12.12a116.85,116.85,0,0,1,13-36.67c1.76-3.17,3.68-6.26,5.73-9.26C126.49,282.91,125.58,282.25,125.17,282.85Z" transform="translate(-15.21 -32.48)"/><path class="cls-18" d="M103.53,323l-4.88,7.21c-.4.6.5,1.27.91.66l4.88-7.2C104.84,323.09,103.93,322.42,103.53,323Z" transform="translate(-15.21 -32.48)"/><path class="cls-18" d="M162.06,301.5c.27-2.63.65-5.24,1.12-7.84.13-.71-1-.84-1.12-.13a103.58,103.58,0,0,0-1.23,27.74q.36,4,1,8a.57.57,0,0,0,1.12-.17A102.36,102.36,0,0,1,162.06,301.5Z" transform="translate(-15.21 -32.48)"/><path class="cls-18" d="M190.07,363.75l-12.4,2.19a.56.56,0,0,0,.18,1.11l12.39-2.19A.56.56,0,0,0,190.07,363.75Z" transform="translate(-15.21 -32.48)"/><path class="cls-4" d="M162.64,270.11c-4.95.16-10.16.34-16,.46-7-16-14.93-32.12-21.89-48.12-1.33-3.06-2.84-6.33-5.74-8-3.13-1.8-7.29-1.15-10.17,1S103,228.11,104.13,235c3.83,22.46,14.35,35.32,28,53.55a209.57,209.57,0,0,0,30.42-2.42A42.53,42.53,0,0,1,162.64,270.11Z" transform="translate(-15.21 -32.48)"/><path class="cls-16" d="M139.16,282c-1.13,0,2.25-4.51,1.13-6.77-1.13,2.26-4.51,3.39-5.64,5.64-14.09-17.11-28.16-36-29.42-58.31a30.06,30.06,0,0,0-1.1,12.47c3.83,22.46,14.35,35.32,28,53.55a209.57,209.57,0,0,0,30.42-2.42c-.13-.63-.24-1.25-.33-1.88C154.47,285.45,146.49,285.06,139.16,282Z" transform="translate(-15.21 -32.48)"/><path class="cls-16" d="M143.75,263.83l-15.19-29.71-4.29-8.4c-.33-.64-1.38-.24-1,.41l15.18,29.7,4.3,8.4C143,264.87,144.08,264.48,143.75,263.83Z" transform="translate(-15.21 -32.48)"/><path class="cls-13" d="M201.18,270.5a332.73,332.73,0,0,0-38.54-.39,42.53,42.53,0,0,0-.08,16.06,219,219,0,0,0,38.94-9.57C201.4,274.48,201.28,272.62,201.18,270.5Z" transform="translate(-15.21 -32.48)"/><path class="cls-13" d="M190.77,270.71a84.64,84.64,0,0,1,16.39-4.79c1.55-.29,3.3-.49,4.58.41s1.66,2.87,1.79,4.54c.18,2.33.26,4.94-1.35,6.67-1.38,1.47-3.59,1.85-5.64,1.95a33,33,0,0,1-16-3.27Z" transform="translate(-15.21 -32.48)"/><path class="cls-13" d="M210.05,265.68l7.13.15c1,1.67,2,3.28,3,5-.16,1.53-.21,3.41-.36,4.95a3.7,3.7,0,0,1-1.95-4.27c-.63-.63-1.22-1.69-1.85-2.32-1.89,0-4-.38-5.87-.42Z" transform="translate(-15.21 -32.48)"/><path class="cls-13" d="M208.56,269.47l7.13.15c.95,1.67,2,3.29,3,5-.15,1.54-.2,3.42-.35,4.95a3.71,3.71,0,0,1-2-4.27c-.63-.63-1.21-1.69-1.84-2.32-1.89,0-4-.38-5.87-.41Z" transform="translate(-15.21 -32.48)"/><path class="cls-13" d="M206.44,271.55l7.13.15c1,1.67,2.05,3.29,3,5-.15,1.54-.2,3.42-.35,5a3.73,3.73,0,0,1-2-4.28c-.63-.62-1.21-1.69-1.84-2.32-1.89,0-4-.38-5.87-.41Z" transform="translate(-15.21 -32.48)"/><path class="cls-13" d="M204.36,273.84l7.13.15c1,1.67,2,3.28,3,5-.15,1.53-.21,3.41-.36,4.95a3.71,3.71,0,0,1-1.95-4.27c-.63-.63-1.22-1.7-1.85-2.32-1.88,0-4-.38-5.87-.42Z" transform="translate(-15.21 -32.48)"/><path class="cls-9" d="M28.9,323.62c8.21-15.71,20.72-30.17,37.53-35.79s38.09.15,46.06,16c-4-3.37-10-3.73-14.94-1.94s-9,5.43-12.44,9.41c-10.47,12.13-16,27.81-19,43.55s-3.75,31.83-5.84,47.72c-.93,7-2.19,14.23-5.85,20.3-4.54,7.51-14.48,13.67-23,8.72-6-3.5-9.47-8.73-11-15.33-2.25-9.6-4.36-19.07-4.92-28.94a125.11,125.11,0,0,1,2.11-31A120.64,120.64,0,0,1,28.9,323.62Z" transform="translate(-15.21 -32.48)"/><path class="cls-10" d="M72.36,320c-13,30-17,60-23,93-2.57,11.31-9.89,16.53-18.71,18.13l.7.43c8.54,4.95,18.48-1.21,23-8.72,3.66-6.07,4.92-13.27,5.85-20.3,2.09-15.89,2.81-32,5.84-47.72s8.58-31.42,19-43.55c3.43-4,7.49-7.62,12.44-9.41s10.9-1.43,14.94,1.94a28.41,28.41,0,0,0-2.74-4.39C94.6,293.39,78.22,304.94,72.36,320Z" transform="translate(-15.21 -32.48)"/><path class="cls-11" d="M73.12,303c-8.77,1.87-16.37,7.15-22.14,13.89-6.51,7.6-10.5,17-13.08,26.55-2.87,10.69-4.36,21.77-5.64,32.74q-2,17.31-2.46,34.75t.66,34.67c.09,1.44.19,2.87.3,4.3,0,.64,1,.48,1-.16q-1.29-17.16-1-34.4.24-17.06,2-34.06a282.18,282.18,0,0,1,4.95-32.73c2.21-9.83,5.59-19.61,11.56-27.82,5.19-7.14,12.29-13.13,20.77-15.87a30.43,30.43,0,0,1,3.28-.87C73.9,303.87,73.75,302.88,73.12,303Z" transform="translate(-15.21 -32.48)"/><path class="cls-11" d="M67.39,312.79A36.56,36.56,0,0,0,51,317.88l5.25-15.56c.2-.61-.73-1-.93-.36l-5.69,16.86a.5.5,0,0,0,.78.57,35.75,35.75,0,0,1,17.17-5.61C68.18,313.74,68,312.75,67.39,312.79Z" transform="translate(-15.21 -32.48)"/><path class="cls-11" d="M50.92,344.88a106.55,106.55,0,0,0-14.73,19.77c-.91,1.58-1.76,3.18-2.59,4.8A103.27,103.27,0,0,1,32,346c.12-2.37.32-4.74.6-7.09a.5.5,0,0,0-1-.12,104.33,104.33,0,0,0,.1,25.16c.3,2.39.69,4.77,1.15,7.14a.51.51,0,0,0,1,.1,106.55,106.55,0,0,1,13.29-20.49c1.48-1.78,3-3.52,4.61-5.2C52.17,345,51.35,344.41,50.92,344.88Z" transform="translate(-15.21 -32.48)"/><path class="cls-11" d="M44.27,388.32a70.53,70.53,0,0,0-12.14,19.31c-.66,1.58-1.25,3.19-1.8,4.81a158.19,158.19,0,0,1-7.28-27.05.5.5,0,0,0-1,.16,160.16,160.16,0,0,0,7.83,28.6.5.5,0,0,0,.92,0A70,70,0,0,1,41.05,393.9c1.26-1.72,2.61-3.39,4-5C45.51,388.43,44.69,387.84,44.27,388.32Z" transform="translate(-15.21 -32.48)"/><path class="cls-10" d="M83.22,383.05c13.74-6,33.57-6.66,45.93,5.31-3-11.84-14.52-20.25-26.84-22.16a34,34,0,0,0-10,3.07c-1.83.9-3.31-1.9-1.48-2.8l.54-.25c-9.23,1.32-17.87,5.61-25.46,11.36a39.25,39.25,0,0,0-5.21,10.54,1.59,1.59,0,0,1-3-.94,38.66,38.66,0,0,1,1.44-3.84c-.71.67-1.4,1.35-2.08,2A100.23,100.23,0,0,0,44.43,401c-1.66,5.71-2.34,11.8-3,17.57-.24,2-3.41,1.92-3.17-.1.35-3,.7-6,1.17-9a106.15,106.15,0,0,0-9.23,24.12c-2,8.13-2.68,16.31-3.25,24.63A19.29,19.29,0,0,0,32,473.28l.16.16C41.87,439.18,50.47,399.76,83.22,383.05Z" transform="translate(-15.21 -32.48)"/><path class="cls-9" d="M83.22,383.05c-32.75,16.71-41.35,56.13-51,90.39,5.69,5.93,15.14,3.44,20.63-1.46,4.08-3.64,6.78-8.53,9.12-13.49A72.72,72.72,0,0,0,51.82,464c-1.71,1.1-3.18-1.71-1.47-2.8a70.29,70.29,0,0,1,13.47-6.86c2.44-5.48,4.73-11,7.09-16.57-2.22,1.08-4.37,2.26-6.46,3.5-1.76,1-3.23-1.77-1.48-2.8a79.16,79.16,0,0,1,9.8-5c2-4.59,4.13-9.14,6.49-13.57a100.64,100.64,0,0,1,11.48-17.32,60.6,60.6,0,0,0-10.12,2.25c-2,.61-2.65-2.48-.72-3.09a62.72,62.72,0,0,1,13.86-2.55,60.51,60.51,0,0,1,11.78-9.75l.67-.4-1.78-.17a1.58,1.58,0,1,1,.09-3.16c2.2.19,4.43.43,6.63.81a21.07,21.07,0,0,1,6.8-1.58c4.45-.22,9.18,1.56,11.6,5.29-.11-.63-.24-1.25-.4-1.86C116.79,376.39,97,377,83.22,383.05Z" transform="translate(-15.21 -32.48)"/><path class="cls-11" d="M97.91,379.75c-7.56-.67-15,1.7-21.37,5.7-7.17,4.53-12.73,11.1-17.21,18.22-5,7.92-9,16.51-12.74,25.06q-6,13.5-10.67,27.49t-8.13,28.21c-.28,1.18-.56,2.36-.83,3.54-.12.54.72.65.84.13Q31,473.9,35.55,460t10.13-27a238.16,238.16,0,0,1,12.18-25.24c4.24-7.39,9.42-14.46,16.29-19.61,6-4.47,13.22-7.54,20.76-7.65a27.74,27.74,0,0,1,2.88.12C98.33,380.64,98.45,379.8,97.91,379.75Z" transform="translate(-15.21 -32.48)"/><path class="cls-11" d="M90.84,386.22a31,31,0,0,0-14.56,0L84.41,375c.32-.44-.34-1-.66-.53q-4.41,6.1-8.81,12.22a.42.42,0,0,0,.49.65,30.2,30.2,0,0,1,15.28-.25C91.24,387.19,91.36,386.35,90.84,386.22Z" transform="translate(-15.21 -32.48)"/><path class="cls-11" d="M69.5,408.06a90.05,90.05,0,0,0-16.85,12.32c-1.13,1-2.22,2.12-3.29,3.22A86.67,86.67,0,0,1,54,404.22c.68-1.89,1.44-3.75,2.25-5.58a.43.43,0,0,0-.78-.34,87.75,87.75,0,0,0-6.2,20.36c-.36,2-.64,4-.85,6.07a.43.43,0,0,0,.75.32A90.19,90.19,0,0,1,65,411.8q2.46-1.62,5-3.06C70.48,408.47,70,407.79,69.5,408.06Z" transform="translate(-15.21 -32.48)"/><path class="cls-11" d="M53.27,441.53a60,60,0,0,0-14.64,12.59c-.93,1.11-1.8,2.26-2.65,3.44a134.09,134.09,0,0,1,.86-23.7.42.42,0,0,0-.84-.12,135.74,135.74,0,0,0-.8,25.09A.43.43,0,0,0,36,459a58.73,58.73,0,0,1,13.32-13.79q2.19-1.62,4.51-3C54.25,441.93,53.74,441.25,53.27,441.53Z" transform="translate(-15.21 -32.48)"/></g><path class="cls-20" d="M89.8,146q5.06,13.34,10.13,26.66c.5-3.29,1-6.59,1.49-9.88q3.35,9.84,6.67,19.69,1.25-5.08,2.48-10.17l4.92,25.59c-1.27-9.42-2.39-18.23-3.67-27.65l.27,1.22-.28-6.66c-.91,2.28-1.69,3.9-2.6,6.18-1.73-5.59-3.36-11.67-5.09-17.26-1.38,2.15-2.06,3.34-3.44,5.5-1.51-5.62-2.74-11.25-4.25-16.86Z" transform="translate(-15.21 -32.48)"/><path class="cls-11" d="M128.39,131.26c-.25-3.9-2.28-7.83-5.81-9.24s-8.65-.45-10.89,2.69c-2.58-9.48-13-16.07-22.7-14.29-7.11,1.3-13.4,7-15.85,13.76a9.56,9.56,0,0,0-5.69,5,9.1,9.1,0,0,0-.37,1,11.56,11.56,0,0,0-11,17.55c2.09,3.45,6.48,5.53,10.46,6.14a11.22,11.22,0,0,0,10.61-4.45A20.39,20.39,0,0,0,96,154.9a21.17,21.17,0,0,0,13.48-10.19,8,8,0,0,0,3.46-.55,6.5,6.5,0,0,0,1.13-.62c4.63.75,11.68-3.57,13.26-6.56A10.8,10.8,0,0,0,128.39,131.26Z" transform="translate(-15.21 -32.48)"/><path class="cls-17" d="M128.39,131.26c-.25-3.9-2.28-7.83-5.81-9.24s-8.65-.45-10.89,2.69c-2.58-9.48-13-16.07-22.7-14.29-7.11,1.3-13.4,7-15.85,13.76a9.56,9.56,0,0,0-5.69,5,9.1,9.1,0,0,0-.37,1,11.93,11.93,0,0,0-9.27,3.25,12.06,12.06,0,0,0-2.28,13.32,13.35,13.35,0,0,1,5.08-9.24c3-2,7,0,10,2-1-6,2-14,9-12,1,0-3,4,0,6,0-6,7-9,12-10,9-2,19,2,20,12,1-3-1-8,2-9,6-3,9,2,11,7a12.75,12.75,0,0,1,1.35,5.19,7.41,7.41,0,0,0,1.34-1.7A10.8,10.8,0,0,0,128.39,131.26Z" transform="translate(-15.21 -32.48)"/></svg>