<svg id="OBJECTS" xmlns="http://www.w3.org/2000/svg" viewBox="0 0 240.38 433.36"><defs><style>.cls-1{fill:#f1faee;}.cls-10,.cls-2,.cls-3,.cls-4,.cls-9{fill:#457b9d;}.cls-2{opacity:0.09;}.cls-3{font-size:7.92px;font-family:Montserrat-Medium, Montserrat Medium;font-weight:500;}.cls-4{font-size:27.06px;font-family:PlayfairDisplay-Regular, PlayfairDisplay Regular;letter-spacing:0.1em;}.cls-5{letter-spacing:0.1em;}.cls-6{letter-spacing:0.1em;}.cls-7{fill:#a8dadc;}.cls-18,.cls-8{fill:none;stroke-linecap:round;stroke-miterlimit:10;}.cls-8{stroke:#457b9d;}.cls-9{opacity:0.29;}.cls-11{fill:#3b6a87;}.cls-12{fill:#bc6c25;}.cls-13{fill:#6b3e15;}.cls-14{fill:#2d5066;}.cls-15{fill:#1d3557;}.cls-16{fill:#82bebf;}.cls-17{fill:#294b7a;}.cls-18{stroke:#1d3557;stroke-width:0.25px;}</style></defs><rect class="cls-1" width="240.38" height="433.36"/><path class="cls-2" d="M443.36,333.06c-31.95-46.83-79.38-71.8-129.75-78.43V465.84H554V432.59a105.26,105.26,0,0,1-39.63-15.53C482.36,396.06,466.36,365.06,443.36,333.06Z" transform="translate(-313.61 -32.48)"/><path class="cls-2" d="M313.61,32.48v91.61c31.3-13.72,60.64-32.55,92.75-47C455.58,55,505.75,60.14,554,75.64V32.48Z" transform="translate(-313.61 -32.48)"/><text class="cls-3" transform="translate(12.06 341.93)">.</text><text class="cls-4" transform="translate(8.91 293.95)">E<tspan class="cls-5" x="15.91" y="0">quilib</tspan><tspan class="cls-6" x="96.74" y="0">r</tspan><tspan class="cls-5" x="108.41" y="0">io</tspan><tspan class="cls-5"><tspan x="0" y="32.47">Emocional</tspan></tspan></text><path class="cls-7" d="M374.25,240.3a1.26,1.26,0,1,1,1.26,1.26A1.26,1.26,0,0,1,374.25,240.3Z" transform="translate(-313.61 -32.48)"/><path class="cls-7" d="M357.89,240.3a1.26,1.26,0,1,1,1.26,1.26A1.26,1.26,0,0,1,357.89,240.3Z" transform="translate(-313.61 -32.48)"/><path class="cls-7" d="M341.53,240.3a1.26,1.26,0,1,1,1.26,1.26A1.25,1.25,0,0,1,341.53,240.3Z" transform="translate(-313.61 -32.48)"/><path class="cls-7" d="M325.17,240.3a1.26,1.26,0,1,1,1.26,1.26A1.25,1.25,0,0,1,325.17,240.3Z" transform="translate(-313.61 -32.48)"/><path class="cls-7" d="M374.25,224.09a1.26,1.26,0,1,1,1.26,1.25A1.26,1.26,0,0,1,374.25,224.09Z" transform="translate(-313.61 -32.48)"/><path class="cls-7" d="M357.89,224.09a1.26,1.26,0,1,1,1.26,1.25A1.26,1.26,0,0,1,357.89,224.09Z" transform="translate(-313.61 -32.48)"/><path class="cls-7" d="M341.53,224.09a1.26,1.26,0,1,1,1.26,1.25A1.25,1.25,0,0,1,341.53,224.09Z" transform="translate(-313.61 -32.48)"/><path class="cls-7" d="M325.17,224.09a1.26,1.26,0,1,1,1.26,1.25A1.25,1.25,0,0,1,325.17,224.09Z" transform="translate(-313.61 -32.48)"/><circle class="cls-7" cx="61.9" cy="175.38" r="1.25"/><path class="cls-7" d="M357.89,207.87a1.26,1.26,0,1,1,2.51,0,1.26,1.26,0,0,1-2.51,0Z" transform="translate(-313.61 -32.48)"/><path class="cls-7" d="M341.53,207.87a1.26,1.26,0,1,1,1.26,1.25A1.26,1.26,0,0,1,341.53,207.87Z" transform="translate(-313.61 -32.48)"/><path class="cls-7" d="M325.17,207.87a1.26,1.26,0,1,1,1.26,1.25A1.26,1.26,0,0,1,325.17,207.87Z" transform="translate(-313.61 -32.48)"/><path class="cls-7" d="M374.25,191.65a1.26,1.26,0,1,1,1.26,1.25A1.26,1.26,0,0,1,374.25,191.65Z" transform="translate(-313.61 -32.48)"/><path class="cls-7" d="M357.89,191.65a1.26,1.26,0,1,1,1.26,1.25A1.26,1.26,0,0,1,357.89,191.65Z" transform="translate(-313.61 -32.48)"/><path class="cls-7" d="M341.53,191.65a1.26,1.26,0,1,1,1.26,1.25A1.25,1.25,0,0,1,341.53,191.65Z" transform="translate(-313.61 -32.48)"/><path class="cls-7" d="M325.17,191.65a1.26,1.26,0,1,1,1.26,1.25A1.25,1.25,0,0,1,325.17,191.65Z" transform="translate(-313.61 -32.48)"/><path class="cls-7" d="M465.63,74.06a1,1,0,1,1-1,1A1,1,0,0,1,465.63,74.06Z" transform="translate(-313.61 -32.48)"/><path class="cls-7" d="M465.63,61.49a1,1,0,1,1-1,1A1,1,0,0,1,465.63,61.49Z" transform="translate(-313.61 -32.48)"/><path class="cls-7" d="M478.09,74.06a1,1,0,1,1-1,1A1,1,0,0,1,478.09,74.06Z" transform="translate(-313.61 -32.48)"/><path class="cls-7" d="M478.09,61.49a1,1,0,1,1-1,1A1,1,0,0,1,478.09,61.49Z" transform="translate(-313.61 -32.48)"/><path class="cls-7" d="M490.55,74.06a1,1,0,0,1,0,1.93,1,1,0,1,1,0-1.93Z" transform="translate(-313.61 -32.48)"/><path class="cls-7" d="M490.55,61.49a1,1,0,1,1-1,1A1,1,0,0,1,490.55,61.49Z" transform="translate(-313.61 -32.48)"/><path class="cls-7" d="M503,74.06a1,1,0,1,1-1,1A1,1,0,0,1,503,74.06Z" transform="translate(-313.61 -32.48)"/><path class="cls-7" d="M503,61.49a1,1,0,1,1-1,1A1,1,0,0,1,503,61.49Z" transform="translate(-313.61 -32.48)"/><path class="cls-7" d="M515.46,74.06a1,1,0,1,1-1,1A1,1,0,0,1,515.46,74.06Z" transform="translate(-313.61 -32.48)"/><path class="cls-7" d="M515.46,61.49a1,1,0,1,1-1,1A1,1,0,0,1,515.46,61.49Z" transform="translate(-313.61 -32.48)"/><path class="cls-7" d="M527.92,74.06a1,1,0,1,1-1,1A1,1,0,0,1,527.92,74.06Z" transform="translate(-313.61 -32.48)"/><path class="cls-7" d="M527.92,61.49a1,1,0,1,1-1,1A1,1,0,0,1,527.92,61.49Z" transform="translate(-313.61 -32.48)"/><path class="cls-7" d="M540.38,74.06a1,1,0,0,1,0,1.93,1,1,0,1,1,0-1.93Z" transform="translate(-313.61 -32.48)"/><path class="cls-7" d="M540.38,61.49a1,1,0,0,1,0,1.93,1,1,0,1,1,0-1.93Z" transform="translate(-313.61 -32.48)"/><path class="cls-8" d="M409.26,97.58a20.55,20.55,0,0,1-18.5-7.9,8.81,8.81,0,0,1-2.07-5.27c0-1.93,1.37-3.93,3.27-4.17,2.57-.33,4.58,2.78,3.91,5.28s-3.12,4.15-5.62,4.82c-4,1.06-8.18.23-12.09-1s-7.7-2.93-11.75-3.59-8.53-.16-11.64,2.51-4.15,7.9-1.4,11a6.29,6.29,0,0,0,9.8-7.86c-2.13-3-6.26-3.53-9.54-5.18-4.83-2.43-8-8.34-6.32-13.47s9.07-7.73,13.05-4.07c1.52,1.4,2.44,3.45,4.21,4.51a6.2,6.2,0,0,0,6.9-.86,11.8,11.8,0,0,0,3.6-6.33c.72-2.86.87-5.85,1.72-8.68s2.62-5.61,5.39-6.61c3-1.08,6.46.28,8.92,2.36s4.24,4.83,6.43,7.19,5,4.44,8.24,4.51,6.59-2.68,6.15-5.86c-.37-2.74-3.53-4.57-6.21-3.94a6.83,6.83,0,0,0-4.88,6,10.19,10.19,0,0,0,2.76,7.56,13.89,13.89,0,0,0,13.74,4.07c3.34-.92,6.6-4,5.9-7.34-.64-3.08-4.45-4.7-7.48-3.84s-5.23,3.52-6.6,6.35-2.1,5.93-3.35,8.82-3.19,5.68-6.08,6.91c-4.53,1.93-9.78-.58-13.4-3.92s-6.48-7.58-10.66-10.18-10.53-2.86-13.32,1.2c.9-4,1.91-8.06,4.36-11.32s6.7-5.51,10.62-4.41,6.36,6.45,3.78,9.6c-2,2.39-5.84,2.83-7.25,5.58a5.16,5.16,0,0,0,.94,5.56,8.39,8.39,0,0,0,5.28,2.52c3.2.41,6.72-.59,8.67-3.16s1.72-6.75-.91-8.61c-3.56-2.52-8.61.39-10.95,4.07s-3.43,8.22-6.56,11.26-7.72,4-12,3.46-8.24-2.5-11.92-4.74A4.14,4.14,0,0,0,348,72.22c-2.16-.5-4.29.77-6.11,2-3.89,2.72-7.77,6-9.35,10.46s.09,10.42,4.58,12,9.16-1.69,11.8-5.55S353,82.66,356,79.1s8.66-5.72,12.37-2.87c2.91,2.24,3.31,6.45,3.05,10.12s-.87,7.57.82,10.84a8.39,8.39,0,0,0,15.59-1.82c.74-2.93-.15-6-.13-9s1.54-6.56,4.54-6.94c3.26-.42,5.54,3,8.26,4.87,4.71,3.23,12.18,1,14.37-4.27,1.26-3,1.09-6.93,3.61-9.06s6.85-1.37,9.38-3.63c2.25-2,2.13-5.77.38-8.2s-4.7-3.74-7.62-4.44a27.38,27.38,0,0,0-20.07,3c-4.9,2.88-8.79,7.22-13.57,10.3a31.76,31.76,0,0,1-31.53,1.23c-3.29-1.77-6.58-4.81-6.26-8.54s4.32-6.31,8.05-7.39a31.25,31.25,0,0,1,25.7,4L345.42,74.93" transform="translate(-313.61 -32.48)"/><ellipse class="cls-9" cx="172.09" cy="418.99" rx="66.63" ry="3.55"/><path class="cls-10" d="M471.4,212.64l-6.91,34.88a76.33,76.33,0,0,1-19-3.23c0-2.27,0-4.46,0-6.55.17-14.27,1-23.91,1-23.91l-8.52-59.11c-.81-5.62-1.59-11.5.36-16.83s7.63-9.74,13.09-8.25l7.13,29.54Z" transform="translate(-313.61 -32.48)"/><path class="cls-10" d="M451.4,129.63c-5.47-1.48-11.14,2.94-13.1,8.27s-1.17,11.21-.36,16.82l8.52,59.1s-.79,9.66-1,23.92c3.88-26.51,10.53-52.16,13-78.58Z" transform="translate(-313.61 -32.48)"/><path class="cls-11" d="M471.4,212.64l-6.9,34.88h0a76.33,76.33,0,0,1-19-3.23c0-2.27,0-4.46,0-6.55,3.88-26.49,10.52-52.15,13-78.56Z" transform="translate(-313.61 -32.48)"/><path class="cls-12" d="M446.7,275.12l11.14,4.15,6.66-31.75a76.61,76.61,0,0,1-19-3.22C445.49,253.55,445.8,264.17,446.7,275.12Z" transform="translate(-313.61 -32.48)"/><path class="cls-12" d="M446.68,275a84.24,84.24,0,0,0,4.58,16.45c.57,1.47,1.32,3.07,2.76,3.68s3.31-.11,4.8-.88c2.07-1.07,4.34-2.38,4.95-4.66.53-1.95-.32-4-1.31-5.82a32.93,32.93,0,0,0-11.24-11.91Z" transform="translate(-313.61 -32.48)"/><path class="cls-12" d="M452.57,294l3.89,6c1.93-.07,3.87,0,5.79-.07,1.23-.94,2.8-2,4-2.91a3.71,3.71,0,0,0-4.66.59c-.87-.2-2.08-.14-2.95-.34-1-1.59-2.42-3.19-3.45-4.77Z" transform="translate(-313.61 -32.48)"/><path class="cls-12" d="M455,290.73l3.89,6c1.92-.07,3.87,0,5.79-.07,1.23-.94,2.8-2,4-2.92a3.71,3.71,0,0,0-4.66.59c-.86-.2-2.08-.14-2.94-.34-1-1.59-2.43-3.18-3.45-4.77Z" transform="translate(-313.61 -32.48)"/><path class="cls-12" d="M455.66,287.83l3.89,6c1.93-.07,3.87,0,5.8-.07,1.22-.94,2.79-2,4-2.91a3.71,3.71,0,0,0-4.66.59c-.87-.2-2.08-.14-2.95-.34-1-1.59-2.42-3.19-3.45-4.77Z" transform="translate(-313.61 -32.48)"/><path class="cls-12" d="M456.51,284.86c1.29,2,2.59,4,3.88,6,1.93-.07,3.87,0,5.8-.07,1.22-.94,2.79-2,4-2.92a3.71,3.71,0,0,0-4.66.59c-.87-.2-2.08-.13-2.95-.34-1-1.58-2.42-3.18-3.44-4.77Z" transform="translate(-313.61 -32.48)"/><path class="cls-13" d="M455.4,278.68c-.38-.51-1.24,0-.85.52a7.61,7.61,0,0,1,0,9c-.39.5.33,1.2.72.69A8.6,8.6,0,0,0,455.4,278.68Z" transform="translate(-313.61 -32.48)"/><path class="cls-13" d="M455.38,288.56c-.26-.58-1.12-.06-.86.52a14.72,14.72,0,0,1,1.12,8.15c-.09.63.88.88,1,.25A16.06,16.06,0,0,0,455.38,288.56Z" transform="translate(-313.61 -32.48)"/><path class="cls-13" d="M493.45,428.83q0,3.21,0,6.2h-10.7l-.6-6.2Z" transform="translate(-313.61 -32.48)"/><path class="cls-14" d="M494.13,434.1l-12.52-.4c-3.49,4.2-24.5,9.48-25.72,15.13H497A69.72,69.72,0,0,0,494.13,434.1Z" transform="translate(-313.61 -32.48)"/><path class="cls-15" d="M455.89,448.83c-.11.54-.23,1.08-.33,1.63a1.34,1.34,0,0,0,1.17,1.66H496a1.31,1.31,0,0,0,1.19-1.47c0-.61-.09-1.21-.15-1.82Z" transform="translate(-313.61 -32.48)"/><path class="cls-16" d="M465.73,237.39s-13.49,87.38,13.34,192.25l17.29-.18s9.77-96.27,4.07-137.62c-3.59-26,.94-57.43.94-57.43Z" transform="translate(-313.61 -32.48)"/><path class="cls-13" d="M514.37,428.83q0,3.21,0,6.2H503.64l-.6-6.2Z" transform="translate(-313.61 -32.48)"/><path class="cls-10" d="M515.05,434.1l-12.52-.4c-3.49,4.2-24.5,9.48-25.72,15.13h41.13A70.36,70.36,0,0,0,515.05,434.1Z" transform="translate(-313.61 -32.48)"/><path class="cls-15" d="M476.81,448.83c-.12.54-.24,1.08-.33,1.63a1.34,1.34,0,0,0,1.17,1.66H516.9a1.31,1.31,0,0,0,1.19-1.47c0-.61-.09-1.21-.15-1.82Z" transform="translate(-313.61 -32.48)"/><path class="cls-7" d="M486.49,234.8S473.13,324.15,500,429l17.15.63S536.3,352.52,537,290.2c.3-26.29-2-60-2-60Z" transform="translate(-313.61 -32.48)"/><path class="cls-16" d="M517.2,419H504.43c-.64,0-.76,1-.12,1h12.77C517.72,420,517.84,419,517.2,419Z" transform="translate(-313.61 -32.48)"/><path class="cls-16" d="M525.92,264.22a19.67,19.67,0,0,1-16.53-8.46c-.36-.53-1.22,0-.86.52a20.71,20.71,0,0,0,17.4,8.94A.5.5,0,0,0,525.92,264.22Z" transform="translate(-313.61 -32.48)"/><path class="cls-16" d="M508.38,344.24l-9.94,9.23c-.47.44.25,1.13.72.69l9.94-9.23C509.58,344.49,508.85,343.8,508.38,344.24Z" transform="translate(-313.61 -32.48)"/><path class="cls-10" d="M504.09,117.53c-3.56-1.27-7.46-1.14-11.62-1a107.32,107.32,0,0,0-45.71,11.65c-3.58,1.84-6.05,6.59-5.26,10.54a40,40,0,0,0,3.21,8.6,230.74,230.74,0,0,1,19,68.47c.46,3.9,1.62,25.33,1.27,29.24-.65,7.21,52.17,12.53,69.88-6.22,3.85-4.08-3.77-46.77-4.89-55.12a218.27,218.27,0,0,0-12.29-48.59c-2-5.18-4.46-10.53-8.56-14.41A14.17,14.17,0,0,0,504.09,117.53Z" transform="translate(-313.61 -32.48)"/><path class="cls-11" d="M463.75,215.76a230.14,230.14,0,0,0-16.21-61.93c12.82,20.62,15.07,45.85,26.42,67.89,2.33,4.21,4,10.31,9.64,12.3-3.55.44-11-1.33-9.75,1.22,13.26,22.68,43.87,16.34,61.92.92a5,5,0,0,1-.87,2.62C517.19,257.53,464.37,252.21,465,245,465.37,241.09,464.21,219.66,463.75,215.76Z" transform="translate(-313.61 -32.48)"/><path class="cls-11" d="M461.62,142a5.93,5.93,0,0,0,4.75-.56,14.86,14.86,0,0,0,3.86-2.71,16.64,16.64,0,0,0,4.6-8.15,15.36,15.36,0,0,0,.29-5.28c-.06-.5.73-.54.79,0a17,17,0,0,1-9.11,16.84,6.75,6.75,0,0,1-5.54.6C460.79,142.52,461.15,141.81,461.62,142Z" transform="translate(-313.61 -32.48)"/><path class="cls-15" d="M460.42,124.15q-7.71-14-15.4-28c1.24-.47.86-2.79.17-3.94a2.39,2.39,0,0,0-3.46-.56,4.78,4.78,0,0,0-3.36-2.68,3.29,3.29,0,0,0-3.16,1.56c-1.71-1.19-5-.73-6.2,1a6.21,6.21,0,0,0-3.79,0c-1.35.41-2.46,2-1.88,3.25-1-.73-3.3-.43-4.42,0a3.59,3.59,0,0,0-2.16,2.68c-.69-.26-1.54.15-2.28.1a2.51,2.51,0,0,0-2,.7,1.52,1.52,0,0,0-.12,2,10.49,10.49,0,0,0-4.63,1.31c-1.26.81-2.06,2.56-1.31,3.86a2.8,2.8,0,0,0-2.7,2.3,2.85,2.85,0,0,0,1.7,3.17c-.8.86-1.22,3.39-.55,4.36a2.69,2.69,0,0,0,3.13.92,3.2,3.2,0,0,0,1.07,2.85,2.81,2.81,0,0,0,2.77.63A59.27,59.27,0,0,1,428,129.38Z" transform="translate(-313.61 -32.48)"/><path class="cls-17" d="M404.87,115.22c-.67-1-.25-3.5.55-4.36a2.85,2.85,0,0,1-1.7-3.17,2.8,2.8,0,0,1,2.7-2.3c-.75-1.3.05-3,1.31-3.86a10.49,10.49,0,0,1,4.63-1.31,1.52,1.52,0,0,1,.12-2,2.51,2.51,0,0,1,2-.7c.74,0,1.59-.36,2.28-.1a3.59,3.59,0,0,1,2.16-2.68c1.12-.44,3.46-.74,4.42,0-.58-1.29.53-2.84,1.88-3.25a6.21,6.21,0,0,1,3.79,0c1.15-1.74,4.49-2.2,6.2-1a3.29,3.29,0,0,1,3.16-1.56,4.78,4.78,0,0,1,3.36,2.68,2.39,2.39,0,0,1,3.46.56c.69,1.15,1.07,3.47-.17,3.94q2.58,4.72,5.18,9.44c-1.07-1.06-2.11-2.13-3.1-3.25-.8-.9-1.58-1.82-2.32-2.77a14,14,0,0,1-1.42-2,7.65,7.65,0,0,0-1.75-2.74,1.78,1.78,0,0,0-2.35.28A2.64,2.64,0,0,0,438,93.71a1.83,1.83,0,0,0-1.94.43,1.9,1.9,0,0,0-2.12-.24,5.14,5.14,0,0,0-1.73,1.71,3.74,3.74,0,0,0-2.88-.14,2.89,2.89,0,0,0-1.65,1.94,5.73,5.73,0,0,0-3.79,0,2.85,2.85,0,0,0-1.44,1.38c-.25.47-.4,1.22-.82,1.58s-1.38.12-1.91.06a5.28,5.28,0,0,0-2,0,4.6,4.6,0,0,0-2.92,2.68,6.44,6.44,0,0,0-3.49,1.27,3.41,3.41,0,0,0-.91,4.11c-1.11.57-2.46,1.48-2.21,2.83s1.73,2,2.89,2.49a3.06,3.06,0,0,0,.35,2.4,3.1,3.1,0,0,0,2.27,1.17,22,22,0,0,0,1.05,3.57c-1-.45-1.91-.89-2.88-1.3a2.81,2.81,0,0,1-2.77-.63,3.2,3.2,0,0,1-1.07-2.85A2.69,2.69,0,0,1,404.87,115.22Z" transform="translate(-313.61 -32.48)"/><path class="cls-12" d="M448.8,112.53a167.58,167.58,0,0,0,20.83,10.36,4.52,4.52,0,0,1,2.86,4.15,14.72,14.72,0,0,1-4.66,10.85,4.56,4.56,0,0,1-5.34.7c-4.34-2.4-8.74-4.88-13-7.24Z" transform="translate(-313.61 -32.48)"/><path class="cls-13" d="M448.8,112.53c3.86,2.28,7.83,4.39,11.87,6.34a20.89,20.89,0,0,1,2.21,13,24.66,24.66,0,0,1-1.94,5.83c-3.83-2.13-7.7-4.3-11.49-6.38Z" transform="translate(-313.61 -32.48)"/><path class="cls-12" d="M450.7,136.61c8.95-10.08,5.17-18.58-.4-22.73a5.39,5.39,0,0,0-.06-7,4.81,4.81,0,0,0-3.67-1.66,3.8,3.8,0,0,0-3.29,2.18,3.13,3.13,0,0,0,1,3.71h-5.2c-2.42-1.44-5.11-3.42-7.52-4.85A34.06,34.06,0,0,0,418,121.35a41.85,41.85,0,0,0,4.66,5.24C433,134,443.49,144.74,450.7,136.61Z" transform="translate(-313.61 -32.48)"/><path class="cls-13" d="M446.06,111.61c-.85-.87-1.79-1.91-1.75-3.2a2.11,2.11,0,0,1,1.93-2.15.37.37,0,1,1-.07.73c-.76,0-1.17,1-1.13,1.6a4.52,4.52,0,0,0,1.59,2.56.36.36,0,0,1-.06.51A.36.36,0,0,1,446.06,111.61Z" transform="translate(-313.61 -32.48)"/><path class="cls-13" d="M446.8,133.59l1.29-1.44a.37.37,0,0,1,.6.43l-1.3,1.44a.37.37,0,1,1-.59-.43Z" transform="translate(-313.61 -32.48)"/><path class="cls-15" d="M427.46,117.47c1.29.23,2.16-1,2.86-1.87l2.65-3.33c.29-.37.89.06.59.43-1,1.26-2,2.52-3,3.77-.79,1-1.83,2-3.19,1.73C426.92,118.12,427,117.39,427.46,117.47Z" transform="translate(-313.61 -32.48)"/><path class="cls-15" d="M422.87,125.29l1.6-2.25c.26-.36.52-.72.77-1.09a1.08,1.08,0,0,0,.25-.53c0-.09,0-.27-.14-.29-.46-.09-.39-.82.07-.73a1,1,0,0,1,.8.93,2.45,2.45,0,0,1-.68,1.47l-2.08,2.93C423.19,126.11,422.59,125.68,422.87,125.29Z" transform="translate(-313.61 -32.48)"/><path class="cls-13" d="M434.74,130.53a5.83,5.83,0,0,1-.73-1.26l-.79-1.6c-.54-1.09-1.08-2.18-1.61-3.28-.22-.43.43-.83.64-.39l1.42,2.86c.45.93.87,1.9,1.39,2.8,1.06,1.85,3.22,0,4.75,0a.38.38,0,0,1,0,.76,16,16,0,0,0-2.69.8A2.33,2.33,0,0,1,434.74,130.53Z" transform="translate(-313.61 -32.48)"/><path class="cls-15" d="M435.67,116.21a3.61,3.61,0,0,1-2.33,3.5.5.5,0,0,0,.33.94,4.63,4.63,0,0,0,3-4.52A.5.5,0,0,0,435.67,116.21Z" transform="translate(-313.61 -32.48)"/><path class="cls-15" d="M430.33,124.44a.51.51,0,0,0-.46.54,1.82,1.82,0,0,1,0,.38l-.06.24a.29.29,0,0,0,0,.09.21.21,0,0,0,0,.07,2.65,2.65,0,0,1-.43.76,2.61,2.61,0,0,1-1.46.94.5.5,0,1,0,.33.94,3.68,3.68,0,0,0,2.71-3.5A.51.51,0,0,0,430.33,124.44Z" transform="translate(-313.61 -32.48)"/><path class="cls-15" d="M448.68,126.92a11.22,11.22,0,0,0-5.51,3.37c-.44.48.32,1.13.75.66a10.29,10.29,0,0,1,5.09-3.08.51.51,0,0,0,.31-.64A.53.53,0,0,0,448.68,126.92Z" transform="translate(-313.61 -32.48)"/><path class="cls-12" d="M459.45,199a332,332,0,0,1,38.19-5.17,42.36,42.36,0,0,1,2.07,15.92,218.52,218.52,0,0,1-39.82-4.66C459.72,203,459.61,201.14,459.45,199Z" transform="translate(-313.61 -32.48)"/><path class="cls-12" d="M469.8,197.94a84.11,84.11,0,0,0-16.86-2.72c-1.57-.09-3.33-.08-4.49,1s-1.29,3.06-1.21,4.73c.11,2.33.35,4.93,2.17,6.45,1.54,1.29,3.79,1.39,5.83,1.24a33,33,0,0,0,15.51-5.23Z" transform="translate(-313.61 -32.48)"/><path class="cls-12" d="M450.05,195.33l-7.06,1c-.74,1.77-1.62,3.51-2.36,5.29.34,1.51.63,3.37,1,4.87a3.71,3.71,0,0,0,1.41-4.48c.55-.7,1-1.83,1.54-2.53,1.87-.27,3.91-.87,5.77-1.14Z" transform="translate(-313.61 -32.48)"/><path class="cls-12" d="M452,198.91l-7.06,1c-.74,1.77-1.62,3.51-2.36,5.29.34,1.5.63,3.36,1,4.87a3.72,3.72,0,0,0,1.41-4.48c.54-.7,1-1.83,1.54-2.53,1.87-.27,3.9-.87,5.77-1.14Z" transform="translate(-313.61 -32.48)"/><path class="cls-12" d="M454.35,200.72l-7.06,1c-.74,1.78-1.61,3.52-2.35,5.29.34,1.51.62,3.37,1,4.88a3.72,3.72,0,0,0,1.41-4.49c.55-.7,1-1.83,1.55-2.53,1.87-.27,3.9-.87,5.77-1.14Z" transform="translate(-313.61 -32.48)"/><path class="cls-12" d="M456.7,202.73l-7.06,1c-.74,1.78-1.61,3.51-2.35,5.29.34,1.51.62,3.37,1,4.88a3.72,3.72,0,0,0,1.41-4.49c.55-.7,1-1.83,1.55-2.53,1.86-.27,3.9-.87,5.77-1.14Z" transform="translate(-313.61 -32.48)"/><path class="cls-11" d="M498.22,192.76c-.22-.61-1.18-.34-1,.27A39.07,39.07,0,0,1,499,212c-.1.63.87.88,1,.24A40,40,0,0,0,498.22,192.76Z" transform="translate(-313.61 -32.48)"/><path class="cls-11" d="M507.89,190.27l-10.27,2.18c-.63.13-.35,1.09.28,1l10.27-2.18C508.8,191.1,508.52,190.14,507.89,190.27Z" transform="translate(-313.61 -32.48)"/><path class="cls-11" d="M499.84,156.22q-1.92-4.64-4.2-9.11c-.29-.57-1.14-.05-.85.52a126.64,126.64,0,0,1,11.43,33.18c.63,3.27,1.14,6.57,1.51,9.88.07.64,1.07.63,1,0A127.22,127.22,0,0,0,499.84,156.22Z" transform="translate(-313.61 -32.48)"/><path class="cls-11" d="M525.79,162a136.35,136.35,0,0,0-6.23-21c-.23-.6-1.19-.33-1,.27a136.2,136.2,0,0,1,8.95,56,86.28,86.28,0,0,1-.82,9.36,4.39,4.39,0,0,1-1.91,3.31,8.08,8.08,0,0,1-3.54.94c-3.54.29-7.13.27-10.68.4l-11.13.39a.5.5,0,0,0,0,1q10.27-.36,20.53-.72c2.34-.09,5.15-.32,6.66-2.36a7.45,7.45,0,0,0,1.16-3.65c.19-1.63.35-3.27.48-4.91A137.15,137.15,0,0,0,525.79,162Z" transform="translate(-313.61 -32.48)"/><path class="cls-11" d="M508.67,190.26c-.58-.29-1.06.59-.49.88a13.77,13.77,0,0,1,7.2,9.31c.14.63,1.1.35,1-.27A14.76,14.76,0,0,0,508.67,190.26Z" transform="translate(-313.61 -32.48)"/><path class="cls-11" d="M528.94,222.91a65.4,65.4,0,0,1-19.42,8.65,67.4,67.4,0,0,1-21.26,2.1,64.15,64.15,0,0,1-11.93-1.88.5.5,0,0,0-.25,1,66.49,66.49,0,0,0,21.54,1.83,68.18,68.18,0,0,0,21-5.06,66.16,66.16,0,0,0,10.8-5.75C530,223.41,529.48,222.56,528.94,222.91Z" transform="translate(-313.61 -32.48)"/><path class="cls-18" d="M432.22,127.53a4.73,4.73,0,1,1-4.73-4.73A4.73,4.73,0,0,1,432.22,127.53Z" transform="translate(-313.61 -32.48)"/><path class="cls-18" d="M439.57,118.7a4.73,4.73,0,1,1-4.73-4.73A4.72,4.72,0,0,1,439.57,118.7Z" transform="translate(-313.61 -32.48)"/><path class="cls-18" d="M431.26,121.87l-1,1.52" transform="translate(-313.61 -32.48)"/></svg>